<svg xmlns="http://www.w3.org/2000/svg" width="116.517" height="78.449" viewBox="0 0 116.517 78.449">
  <path id="Path_281" data-name="Path 281" d="M498.123,240.91c-4.715,3.114-6.273-2.073-11.922-2.073s-5.649,2.26-11.3,2.26-5.649-2.26-11.3-2.26-5.65,2.26-11.3,2.26-5.648-2.26-11.3-2.26-5.649,2.26-11.3,2.26-5.651-2.26-11.3-2.26-5.649,2.26-11.3,2.26-5.653-2.26-11.306-2.26-7.209,5.186-11.928,2.073c-3.113-2.052,1.752-4.671,1.752-8.4s-2.26-3.726-2.26-7.451,2.26-3.728,2.26-7.455-2.26-3.728-2.26-7.456,2.26-3.727,2.26-7.455-2.26-3.728-2.26-7.457,2.26-3.73,2.26-7.459-2.26-3.729-2.26-7.458,2.26-3.731,2.26-7.462-4.866-6.349-1.753-8.406c4.715-3.113,6.273,2.073,11.922,2.073s5.649-2.26,11.3-2.26,5.649,2.26,11.3,2.26,5.65-2.26,11.3-2.26,5.648,2.26,11.3,2.26,5.649-2.26,11.3-2.26,5.651,2.26,11.3,2.26,5.649-2.26,11.3-2.26,5.653,2.26,11.306,2.26,7.209-5.185,11.928-2.073c3.113,2.053-1.752,4.672-1.752,8.4s2.26,3.726,2.26,7.452-2.26,3.727-2.26,7.455,2.26,3.728,2.26,7.455-2.26,3.728-2.26,7.455,2.26,3.729,2.26,7.457-2.26,3.73-2.26,7.46,2.26,3.729,2.26,7.457-3.2,4.156-2.221,7.758C497.607,237.227,501.236,238.854,498.123,240.91Z" transform="translate(-382.837 -163.456)" fill="#d0fe55"/>
  <g id="Group_414" data-name="Group 414" transform="translate(-382.837 -163.456)">
    <path id="Path_236" data-name="Path 236" d="M471.127,199.124c.192-.02.38-.047.568-.059q1.747-.111,3.5-.217c.061,0,.141.022.181-.008.215-.162.29.008.414.138.279.294.575.574.878.845.069.062.194.062.293.091l.034-.061a3.084,3.084,0,0,1,.214.411c.022.061-.038.151-.061.227a.665.665,0,0,0-.047.162c-.014.622-.029,1.245-.031,1.868,0,.08.078.158.106.241.036.108.058.22.09.347l-.2.016c0,.062-.011.122-.013.182-.011.3-.019.292-.319.3-.6.02-1.192.041-1.784.1-2.475.267-4.948.55-7.422.827-.183.021-.366.044-.55.064-.119.013-.224.007-.295.157s-.189.072-.279-.024a11,11,0,0,1-1.381-1.857c-.037-.062-.113-.142-.173-.143-.253,0-.292-.1-.264-.348.127-1.091.212-2.187.34-3.279.246-2.1.511-4.2.767-6.292a8.27,8.27,0,0,0,.081-1.113c-.118.394-.242.786-.353,1.181q-1.363,4.845-2.718,9.694c-.139.5-.208,1.022-.3,1.535a.575.575,0,0,1-.562.453c-.512.051-1.026.08-1.537.136-1.436.159-2.87.329-4.306.492-.366.041-.734.071-1.1.1-.131.012-.273-.032-.36.134-.015.028-.2.01-.272-.041q-.585-.445-1.148-.921c-.274-.231-.532-.479-.852-.77.026.194.039.325.062.454.074.413.154.826.224,1.24.007.04-.037.094-.067.133-.016.02-.055.025-.085.031-1.041.217-2.078.465-3.126.64-.9.15-1.815.215-2.723.321a.545.545,0,0,1-.5-.211c-.43-.45-.889-.871-1.341-1.3a.716.716,0,0,0-.182-.089.235.235,0,0,1-.157-.291.758.758,0,0,0-.025-.314q-.6-2.51-1.2-5.018a1.652,1.652,0,0,0-.056-.164c-.33.06-.65.116-.969.176-.083.015-.165.036-.246.059a.827.827,0,0,0-.659.661c-.5,2.029-1.033,4.048-1.551,6.072-.1.379-.177.762-.26,1.145-.063.287-.169.323-.4.146a.32.32,0,0,0-.23-.04c-1.233.254-2.462.53-3.7.761a1.2,1.2,0,0,1-.706-.163.933.933,0,0,0-.6-.146c-.258.041-.521.043-.778.086-.627.107-1.251.228-1.876.343a.088.088,0,0,0-.045.008,1.249,1.249,0,0,1-1.363-.431,10.6,10.6,0,0,0-1.284-1,1.028,1.028,0,0,1-.218-.354c-.032-.064-.021-.149-.051-.215-.923-2.044-1.841-4.09-2.779-6.127-.253-.55-.57-1.071-.859-1.6-.039-.072-.086-.141-.163-.266-.078.433-.144.806-.212,1.177-.494,2.69-1.073,5.362-1.762,8.009a4.668,4.668,0,0,1-.276.8,1.123,1.123,0,0,1-.732.649c-.913.288-1.8.671-2.7.985a4.281,4.281,0,0,1-.9.141c-.047.005-.106-.053-.152-.09-.4-.323-.8-.644-1.2-.976a2.8,2.8,0,0,1-.315-.355.131.131,0,0,1-.023-.086c.049-.865.092-1.73.154-2.594.041-.575.11-1.147.165-1.721v-.163c-.284.3-.541.581-.809.85a24.477,24.477,0,0,1-4.339,3.38c-1.13.714-2.287,1.384-3.427,2.081a1.726,1.726,0,0,0-.364.312c-1.861,2.068-3.708,4.15-5.585,6.2-.521.57-1.136,1.055-1.7,1.583-.145.135-.274.286-.407.426-.3-.219-.327-.293-.2-.611a36.681,36.681,0,0,1,2.134-4.209l.722-1.28c-.271.079-.482.138-.691.2a.269.269,0,0,1-.353-.144v0c-.508-.815-1.031-1.62-1.554-2.425-.035-.054-.117-.079-.232-.153.045-.906.075-1.873.145-2.837.072-1,.15-2.007.281-3a79.428,79.428,0,0,1,1.683-9.012c.392-1.556.838-3.1,1.255-4.648.041-.151.018-.322.072-.466q.582-1.555,1.187-3.1a.684.684,0,0,1,.511-.424,16.52,16.52,0,0,0,1.631-.562,20.94,20.94,0,0,1,4.464-1.28,2.343,2.343,0,0,1,.457-.058,1.1,1.1,0,0,0,.944-.462c.245-.292.522-.557.8-.848-.227.037-.451.066-.672.111a9.462,9.462,0,0,1-2.388.126.4.4,0,0,1-.3-.172.414.414,0,0,1,.1-.344c.465-.533.946-1.051,1.42-1.575l3.9-4.307c.211-.233.436-.453.661-.673a.362.362,0,0,1,.182-.08c.8-.134,1.605-.27,2.41-.388a.347.347,0,0,1,.259.141c.188.261.355.537.529.808.078.123.15.251.23.372.152.23.144.328-.04.525q-1.289,1.383-2.576,2.768c-.046.049-.086.1-.157.19H417.6c.11.182.183.324.276.453.267.374.55.736.81,1.114.134.195-.017.343-.139.479q-.932,1.038-1.864,2.075c-.071.08-.136.165-.217.264.055.045.1.086.145.117a2.733,2.733,0,0,1,1,1.144.528.528,0,0,0,.17.21,3.649,3.649,0,0,1,1.238,1.4c.008.017.03.026.073.061.133-.666.265-1.31.388-1.955.049-.256.082-.516.119-.775a.322.322,0,0,1,.287-.308,18.4,18.4,0,0,1,5.855-.113,10.922,10.922,0,0,1,4.8,1.9c.57.4,1.186.739,1.752,1.147a8.484,8.484,0,0,1,1.9,1.806,3.225,3.225,0,0,1,.557,2.776,3.488,3.488,0,0,1-1.3,1.83,7.249,7.249,0,0,1-2.158,1.221,1.48,1.48,0,0,0-.313.144,1.065,1.065,0,0,1-.644.189,2.021,2.021,0,0,0-.539.151,43.048,43.048,0,0,1,3.455,6.435c.031-.1.054-.159.067-.22.68-3.2,1.336-6.406,2.047-9.6.487-2.189,1.049-4.361,1.576-6.54.065-.269.12-.54.173-.811a.338.338,0,0,1,.3-.293c1.366-.261,2.729-.533,4.1-.788.241-.045.4-.112.461-.38s.171-.525.243-.791c.047-.173.139-.257.313-.219.427.094.852.2,1.279.294.1.024.209.045.314.067.226-.638.446-1.266.671-1.893.355-.991.709-1.982,1.075-2.968.073-.2.032-.45.27-.575.024-.013.008-.1.01-.156.024-.495.229-.673.674-.814a1.336,1.336,0,0,1,1.638.485,1.867,1.867,0,0,1,.025,1.846,9.621,9.621,0,0,0-.356.9q-.68,1.738-1.358,3.476c-.033.084-.058.172-.1.295.264.055.509.1.752.157.275.062.55.124.821.2.158.043.188.173.148.314-.123.427-.245.855-.387,1.276a.319.319,0,0,1-.215.193c-.076.005-.162-.1-.239-.164s-.15-.137-.224-.206l-.08.054,3.889,13.635.031-.005c-.26-1.6-.513-3.211-.783-4.814s-.541-3.212-.843-4.812-.644-3.206-.967-4.8c.533-.1,1.061-.191,1.582-.31.741-.169,1.479-.356,2.215-.543a.562.562,0,0,1,.414.042c.656.317,1.319.621,1.981.925a.405.405,0,0,1,.254.486,1,1,0,0,0,.05.293q1.061,4.756,2.117,9.513c.159.72.278,1.448.417,2.172.015.08.04.158.065.258a4.134,4.134,0,0,0,.522-.17.3.3,0,0,0,.127-.209c.249-1.85.462-3.705.743-5.551.422-2.78.92-5.547,1.55-8.289.11-.479.106-.474.609-.418,1.344.149,2.688.289,4.031.442a.424.424,0,0,1,.245.15c.343.421.676.851,1.012,1.278l.077-.018c.017-.431.039-.862.046-1.293,0-.051-.07-.112-.12-.154-.414-.344-.84-.673-1.244-1.028a2.643,2.643,0,0,1-.917-1.651,12.885,12.885,0,0,1-.064-1.79c-.009-.691,0-1.384-.053-2.072a4.706,4.706,0,0,0-1.264-2.735c-.029-.034-.057-.07-.123-.151a1.871,1.871,0,0,1,.278-.035,6.486,6.486,0,0,1,3.067,1.152,2.549,2.549,0,0,1,1.214,1.693q.172.822.3,1.654a1.486,1.486,0,0,0,.618,1.005,7.044,7.044,0,0,1,4.5-1.69,8.455,8.455,0,0,1,4.6,1.465,3.342,3.342,0,0,0,.963-1.441,5.65,5.65,0,0,0,.272-1.816c.007-.384,0-.769.005-1.153a2.422,2.422,0,0,1,1.146-2.112,4.381,4.381,0,0,1,1.481-.614c.28-.063.3.025.465.229.263.322.071.61.063.924a7.721,7.721,0,0,0,.2,2.832,9.674,9.674,0,0,1,.569,1.963,7.143,7.143,0,0,1-.112,2.816,3.658,3.658,0,0,1-1.077,1.682,6.269,6.269,0,0,1-1.594,1.164,2.367,2.367,0,0,0-.237.143,1.091,1.091,0,0,0-.6.916,10.286,10.286,0,0,1-.223,1.34,3.1,3.1,0,0,1-.164.576.307.307,0,0,1-.215.132q-1,.166-2,.312a.3.3,0,0,0-.289.24c-.123.427-.266.848-.388,1.275-.092.323-.239.381-.511.189s-.57-.389-.883-.6c-.033.159-.06.3-.091.435-.071.308-.21.4-.494.278-.324-.135-.637-.3-.979-.459-.017.086-.042.193-.057.3-.036.263-.122.33-.387.28a2.42,2.42,0,0,1-.264-.078c-.078-.024-.156-.051-.31-.1.032.294.063.534.083.775a1.9,1.9,0,0,1-.012.32c-.029.327-.061.653-.094,1.007.437-.1.83-.2,1.228-.275q2.119-.39,4.242-.758a.342.342,0,0,1,.228.076c.37.287.728.589,1.1.874a.311.311,0,0,1,.1.368q-.336,1.578-.666,3.156c-.016.075-.025.152-.039.227a.279.279,0,0,1-.33.217.259.259,0,0,1-.08-.03.334.334,0,0,0-.165-.031c-.954.112-1.907.221-2.859.343-.9.116-1.8.244-2.692.374a.209.209,0,0,0-.14.133c-.169,1.015-.33,2.031-.492,3.047A.462.462,0,0,0,471.127,199.124Zm-53.892-17.578-3.106-.213a46.33,46.33,0,0,1,4.228-4.759c-.674.091-1.334.219-2,.318a.881.881,0,0,0-.574.326c-1.769,1.984-3.555,3.953-5.335,5.927a2.157,2.157,0,0,0-.13.187c.484-.022.916-.012,1.34-.067.639-.083,1.272-.212,1.907-.32.153-.026.319-.063.406.116s-.016.307-.144.421-.24.215-.359.325a32.543,32.543,0,0,0-4.8,5.7,2.521,2.521,0,0,0-.474,1.135c-.1.812-.253,1.617-.389,2.461a1.634,1.634,0,0,0,.317-.071c.334-.155.667-.313.991-.487a.647.647,0,0,0,.215-.232c1.714-2.719,3.6-5.32,5.563-7.86C415.65,183.474,416.444,182.526,417.235,181.546Zm.61,5.809a12.82,12.82,0,0,1-.1,1.349,4.5,4.5,0,0,1-1.142,2.127,17.2,17.2,0,0,1-3.39,2.935c-1.767,1.228-3.55,2.432-5.326,3.647-.043.03-.081.068-.139.116a.312.312,0,0,0,.08.013,18.477,18.477,0,0,1,3.84-.167,5.964,5.964,0,0,1,2.643.637,2.26,2.26,0,0,1,1.327,1.739c.006.049.03.119.066.136.4.193.8.377,1.215.573.073-.463.146-.886.2-1.311a.315.315,0,0,0-.079-.227,10.992,10.992,0,0,0-.945-.936,6.522,6.522,0,0,0-2.378-1.129c-.09-.025-.211-.1-.228-.179s.057-.192.117-.27c.084-.109.2-.193.289-.3.858-.975,1.732-1.937,2.566-2.933a26.366,26.366,0,0,0,2.025-2.6,2.3,2.3,0,0,0-.6-3.2l-.036-.024Zm-17.451,30.23.071.046c2.194-3.356,4.676-6.5,7.123-9.667l-.025-.09h-3.279l-.038-.1c1.562-2.17,3.207-4.278,4.828-6.412a.425.425,0,0,0-.1-.015l-1.882.133a.873.873,0,0,0-.683.46q-2.492,3.657-5.009,7.3c-.032.047-.057.1-.089.156a5.005,5.005,0,0,0,1.819-.15c.5-.131.992-.272,1.492-.392a.36.36,0,0,1,.306.062c.059.079.038.223.035.339a.356.356,0,0,1-.071.143c-.527.92-1.068,1.832-1.578,2.761-.948,1.722-1.879,3.454-2.816,5.182C400.46,217.42,400.43,217.5,400.394,217.585ZM452.6,184.65a1.087,1.087,0,0,0,.014.108c.364,1.625.768,3.243,1.085,4.877.557,2.864,1.062,5.738,1.586,8.608.02.111.044.2.184.171l1.8-.321c-.026-.2-.036-.359-.068-.516-.432-2.114-.857-4.229-1.305-6.339-.392-1.847-.811-3.689-1.222-5.532a.249.249,0,0,0-.113-.151C453.918,185.253,453.269,184.957,452.6,184.65Zm-20.419,3.94a10.452,10.452,0,0,1,.6,1.068,2.7,2.7,0,0,1-.381,3.133,6.262,6.262,0,0,1-.583.557,13.4,13.4,0,0,1-5.035,2.45c-.055.016-.108.036-.177.059a.884.884,0,0,0,.068.09,24.758,24.758,0,0,1,2.381,2.871.919.919,0,0,0,.294.247c.7.391,1.4.775,2.1,1.16.049.027.1.046.174.079a.784.784,0,0,0-.029-.094,32.039,32.039,0,0,0-2.161-3.775.474.474,0,0,1-.08-.138c-.033-.126-.038-.234.155-.212a.514.514,0,0,0,.24-.054c.534-.215,1.055-.467,1.6-.646a5.8,5.8,0,0,0,1.779-.994,2.9,2.9,0,0,0,1.271-3,3.263,3.263,0,0,0-.681-1.343A8.981,8.981,0,0,0,432.184,188.59Zm33.187-4.266c-.019.079-.028.113-.035.147q-.83,3.78-1.662,7.56c-.214.967-.447,1.93-.664,2.9-.017.075,0,.213.041.236.372.189.754.357,1.144.537.032-.1.055-.174.077-.247l1.623-5.4a5.42,5.42,0,0,0,.227-.842c.143-1.1.265-2.2.384-3.3a.44.44,0,0,0-.1-.284c-.216-.279-.45-.545-.673-.819C465.619,184.661,465.51,184.507,465.371,184.324Zm-15.338,12.813c-.163-.569-.313-1.084-.457-1.6q-1.33-4.746-2.659-9.495c-.1-.357-.165-.415-.565-.439-.2.567-.409,1.135-.6,1.71a.722.722,0,0,0,.006.417c.2.614.435,1.216.616,1.834.643,2.2,1.267,4.4,1.9,6.6a.335.335,0,0,0,.132.2C448.934,196.616,449.461,196.864,450.033,197.137Zm-32.809,1.337,1.246-7.05-4.393,5.143A6.551,6.551,0,0,1,417.224,198.474Zm64.16-24.333H481.3c-.013.043-.03.086-.039.13a10.17,10.17,0,0,0-.111,2.914c.049.626.2,1.244.255,1.87a3.479,3.479,0,0,1-.1,1.6,4.461,4.461,0,0,1-2.119,2.309,4.119,4.119,0,0,1-.678.2c-.228.078-.449.176-.67.271a.674.674,0,0,0-.194.121.632.632,0,0,0-.2.239q-.185.762-.328,1.531a.336.336,0,0,0,.094.268c.319.276.654.535.984.8.044.035.1.061.174.109.1-.615.19-1.2.288-1.779a.549.549,0,0,1,.1-.294,5.5,5.5,0,0,1,.913-.761,7.6,7.6,0,0,0,1.514-1.2,3.039,3.039,0,0,0,.845-1.354,7.075,7.075,0,0,0,.09-2.858,13.015,13.015,0,0,0-.5-1.673,5.863,5.863,0,0,1-.239-1.073c-.036-.455-.005-.917-.005-1.376Zm-71.3,17.748.069.071q1.09-.786,2.178-1.575a.211.211,0,0,0,.088-.126,2.1,2.1,0,0,1,.48-1.025c1.105-1.465,2.221-2.924,3.366-4.357.57-.713,1.214-1.366,1.82-2.049.048-.054.112-.164.09-.2-.18-.3-.379-.585-.6-.909a114.576,114.576,0,0,0-7.5,10.169Zm31.621,2.2,1.246-.273,3.037-8.357-1.08-.3Zm2.875-9.038a5.459,5.459,0,0,1-.542-.157c-.168-.067-.248-.022-.317.155-.535,1.358-1.085,2.709-1.624,4.064q-1.021,2.562-2.028,5.12a1.639,1.639,0,0,0-.044.167c.362-.072.7-.153,1.036-.2a.329.329,0,0,0,.3-.262q1.367-3.8,2.742-7.587c.15-.423.307-.847.474-1.3Zm-16.5,5.087a.7.7,0,0,0-.131-.743,1.66,1.66,0,0,0-1.135-.6,15.878,15.878,0,0,0-2.046-.049,13.547,13.547,0,0,0-1.562.265.335.335,0,0,0-.3.3c-.137.716-.288,1.429-.416,2.146-.057.321-.071.65-.109,1.021.34-.052.633-.1.927-.141.151-.019.187-.091.207-.239.079-.6.169-1.2.282-1.8a.463.463,0,0,1,.252-.31,8.577,8.577,0,0,1,3.239-.286,1.857,1.857,0,0,1,.562.185c.077.041.129.145.222.25Zm48.3,3.416-.037.071c-.147.041-.293.09-.442.12q-2.292.459-4.586.908c-.395.077-.791.144-1.187.215a5.27,5.27,0,0,0,.837.458c.151.067.3.253.49.079.01-.009.042.009.064.012a1.2,1.2,0,0,0,.322.041c1.379-.176,2.755-.368,4.134-.538.48-.059.967-.072,1.45-.106l.03-.085ZM448.4,196.63c.028.119.049.213.073.307.186.752.423,1.5.544,2.258a1.428,1.428,0,0,0,.914,1.212c.39.167.751.4,1.139.612a.417.417,0,0,0,.006-.1q-.48-1.728-.965-3.457a.258.258,0,0,0-.119-.152C449.482,197.085,448.961,196.866,448.4,196.63Zm-37.447,4.844a1.1,1.1,0,0,0,.1-.084c.509-.489.445-.842-.2-1.116a4.16,4.16,0,0,0-1.536-.242,9.255,9.255,0,0,0-4,.566c-.079.034-.155.072-.263.123.307.173.583.308.837.476a.505.505,0,0,0,.586.056,4.88,4.88,0,0,1,1.867-.327,6.423,6.423,0,0,1,2.029.2C410.613,201.187,410.856,201.189,410.956,201.474Zm-5.114,6.07a4.038,4.038,0,0,1,.267-.464q1.969-2.565,3.949-5.126c.088-.114.172-.231.274-.368-.153-.039-.276-.073-.4-.1l-.378-.081c-1.608,1.992-3.1,4.05-4.624,6.085l.045.057Zm22.08-17.245a3.932,3.932,0,0,0-.728-.217,7.967,7.967,0,0,0-2.9.235.328.328,0,0,0-.2.2c-.088.436-.154.876-.223,1.316-.018.115-.02.233-.03.358a9.889,9.889,0,0,0,4.081-1.893Zm-12.265,9.839a3.551,3.551,0,0,1-1.28,2.6l1.8.911a2.177,2.177,0,0,0,.361-.613c.139-.731.226-1.472.327-2.21.007-.051-.014-.139-.049-.156C416.444,200.494,416.069,200.326,415.657,200.138Zm58.591-18.031.059.013a2.958,2.958,0,0,0,.6,1.891c.165.249.367.289.57.061a1.315,1.315,0,0,0,.362-.62,5.709,5.709,0,0,0,.052-1.5,1.94,1.94,0,0,0-.648-1.285c-.286-.235-.6-.175-.711.176C474.4,181.251,474.34,181.684,474.248,182.107Zm-67.2,6.938c-.067.205-.133.377-.178.553a26.233,26.233,0,0,0-.479,3.777c-.013.127.055.219.2.169q.4-.141.79-.31c.039-.017.064-.1.073-.15.094-.551.18-1.1.274-1.655.067-.392.149-.783.212-1.176a.546.546,0,0,0-.114-.556c-.249-.209-.5-.413-.781-.652Zm16.708,10.6c.1-.6.2-1.175.283-1.75a.526.526,0,0,0-.1-.313c-.225-.345-.463-.68-.7-1.027-.193.045-.4.087-.608.147a.254.254,0,0,0-.163.13q-.229.927-.432,1.859a.237.237,0,0,0,.094.205c.517.247,1.049.484,1.623.745Zm46.128,2.342-.009.069a.451.451,0,0,0,.07.054q1.309.671,2.623,1.336a.461.461,0,0,0,.242.046c.688-.056,1.375-.12,2.062-.182a.61.61,0,0,0,.124-.044c-.08-.045-.131-.077-.184-.1-.707-.369-1.419-.728-2.118-1.11a1.578,1.578,0,0,0-.96-.226c-.618.059-1.231.1-1.853.153Zm1.5-19.162a8.291,8.291,0,0,0-.114-.914.831.831,0,0,0-.253-.472.62.62,0,0,0-.876.047.634.634,0,0,0-.145.286,3.226,3.226,0,0,0,.086,2.612c.111.229.193.255.437.179a.9.9,0,0,0,.635-.614c.111-.4.168-.822.229-1.128Zm-68.939,32.534.073.059c.1-.112.209-.223.311-.336,1.021-1.137,2.048-2.268,3.061-3.412.789-.891,1.561-1.8,2.336-2.7.053-.062.117-.179.092-.23a7.378,7.378,0,0,0-.374-.645Zm20.826-13.374c.142-.7.279-1.358.4-2.021.009-.049-.072-.141-.131-.171-.3-.145-.6-.277-.9-.411l-.708-.31c-.144.668-.283,1.3-.412,1.944a.209.209,0,0,0,.092.174C422.15,201.454,422.691,201.709,423.271,201.985Zm-8.351-21.049.059.081c.212.012.425.038.636.031a.489.489,0,0,0,.317-.111q1.477-1.567,2.936-3.156a.218.218,0,0,0,.048-.19c-.109-.219-.239-.427-.4-.7Zm-2.3,23.278c.634.323,1.267.646,1.9.963a.175.175,0,0,0,.16-.021c.434-.419.862-.845,1.315-1.293-.625-.307-1.2-.592-1.779-.868a.191.191,0,0,0-.156.04l-1.437,1.18Zm62.657-15.457a.473.473,0,0,0,.035-.067c.154-.466.3-.935.468-1.4a.454.454,0,0,1,.242-.236,2.3,2.3,0,0,1,.406-.034c.55-.088,1.1-.184,1.7-.286-.4-.322-.759-.615-1.123-.9a.183.183,0,0,0-.126-.012c-.392.076-.78.181-1.175.227-.363.042-.606.157-.607.566a.755.755,0,0,1-.051.176c-.13.473-.265.945-.384,1.421a.262.262,0,0,0,.077.225C474.908,188.558,475.094,188.651,475.277,188.757Zm-4.291,9.377c.106-.75.21-1.467.3-2.186a.225.225,0,0,0-.1-.181c-.447-.232-.9-.452-1.361-.68a.547.547,0,0,0-.043.1c-.1.558-.212,1.115-.284,1.677-.024.183.159.361.1.571,0,.008.032.029.052.039Zm6.271-7.441a.5.5,0,0,0-.063.1q-.34,1.221-.674,2.441a.171.171,0,0,0,.041.142c.352.328.71.65,1.066.974-.024.022-.011-.01,0-.045.2-.892.4-1.784.591-2.677a.215.215,0,0,0-.052-.175C477.868,191.2,477.566,190.95,477.257,190.693Zm-13.912,8c.254-.89.5-1.753.741-2.617a.188.188,0,0,0-.063-.165c-.362-.18-.73-.348-1.115-.528-.221.9-.436,1.768-.644,2.641-.009.038.041.114.082.137.322.177.648.346,1,.532ZM408.3,206.48c.012.026.013.037.018.039l2.592,1.345a.2.2,0,0,0,.167,0c.366-.235.727-.479,1.09-.721-.022-.032-.027-.049-.039-.054q-1.24-.579-2.483-1.152a.262.262,0,0,0-.191,0C409.067,206.116,408.687,206.3,408.3,206.48Zm61.858-14.848c.348-.065.682-.129,1.016-.188.125-.022.173-.08.179-.215.026-.682.067-1.364.1-2.046,0-.112.019-.291-.041-.329-.289-.184-.27-.5-.38-.762-.084-.2-.146-.4-.223-.618Zm-27.8-7.418c.439.048.868.064,1.283.148.4.08.776.234,1.164.348q1.346.4,2.691.789c.057.017.114.029.182.047l.24-.693-5.378-1.251Zm-38.292,20.31.079.024,1.94-2.9c-.4-.234-.785-.46-1.171-.677-.268-.15-.311-.124-.361.188-.093.584-.19,1.166-.275,1.751C404.2,203.45,404.133,203.988,404.063,204.524Zm6.763,3.515c-.952-.47-1.864-.921-2.777-1.369a.216.216,0,0,0-.152-.021c-.352.144-.7.3-1.063.452a1.237,1.237,0,0,0,.849.3.3.3,0,0,1,.334.188.576.576,0,0,0,.254.251q.734.383,1.482.737a.257.257,0,0,0,.207,0C410.243,208.413,410.519,208.233,410.826,208.039Zm38.92-5.765c.123.529.23,1.013.355,1.493a.406.406,0,0,0,.19.21c.358.207.722.4,1.088.6.228.121.463.227.754.369a3.2,3.2,0,0,0-.162-.974,2.781,2.781,0,0,1-.232-.7.2.2,0,0,0-.091-.118C451.033,202.868,450.414,202.585,449.746,202.274Zm-9.961-3.687c.4.17.811.348,1.223.511a.675.675,0,0,0,.378.064c.524-.132,1.041-.291,1.584-.447-.1-.273-.228-.593-.34-.917-.048-.14-.118-.166-.258-.13q-1.16.3-2.324.571a.294.294,0,0,0-.268.318.324.324,0,0,0,.005.033Zm25.528-23.272a1.172,1.172,0,0,0,.068.1,4.639,4.639,0,0,1,1.222,2.624c.062.463.1.931.173,1.392a1.082,1.082,0,0,0,.958.861c.162.018.27-.016.309-.2a1.188,1.188,0,0,0-.1-.113,1.865,1.865,0,0,1-.642-1.234c-.059-.471-.172-.934-.242-1.4A2.644,2.644,0,0,0,465.313,175.315ZM449.3,200.3c.127.561.243,1.083.366,1.6a.2.2,0,0,0,.1.119c.623.308,1.247.611,1.926.942a9.987,9.987,0,0,1-.3-1.046,1.1,1.1,0,0,0-.718-.885C450.211,200.834,449.782,200.563,449.3,200.3Zm-36,6.018c-.021-.031-.026-.048-.037-.053-.72-.36-1.44-.721-2.162-1.077a.218.218,0,0,0-.17,0c-.347.178-.689.364-1.038.551.019.022.03.046.048.055q1.186.558,2.376,1.111a.2.2,0,0,0,.167,0C412.766,206.718,413.036,206.518,413.3,206.32Zm16.26-6.856-.028.025c.331.513.658,1.029,1,1.537a.987.987,0,0,0,.284.288c.543.346,1.093.68,1.642,1.016a1.42,1.42,0,0,0,.176.073c-.27-.573-.516-1.1-.768-1.623a.359.359,0,0,0-.143-.141q-1.077-.59-2.159-1.174Zm46.857,3.782a.555.555,0,0,0-.058-.1q-.771-.725-1.546-1.445a.253.253,0,0,0-.16-.075c-.593.046-1.185.1-1.778.153a.433.433,0,0,0,.18.154c.676.362,1.374.688,2.019,1.1a2.307,2.307,0,0,0,1.348.214Zm-65.076,1.738c.723.37,1.411.722,2.1,1.07.043.022.12.041.148.019.278-.215.548-.44.84-.677-.689-.341-1.326-.659-1.966-.969a.263.263,0,0,0-.206,0C411.961,204.594,411.672,204.78,411.344,204.984Zm61.2-19.8c.227.178.469.364.708.556a.341.341,0,0,0,.443.052.544.544,0,0,0,.168-.364.494.494,0,0,0-.175-.278c-.265-.243-.553-.461-.812-.709-.356-.341-.578-.321-.846.09-.213.327-.449.64-.656.971a.62.62,0,0,0-.086.366.318.318,0,0,0,.186.226.373.373,0,0,0,.309-.073c.26-.26.5-.547.761-.836ZM422.359,206.06c.091-.4.181-.773.251-1.147.009-.047-.073-.137-.133-.166-.3-.146-.613-.277-.92-.415l-.64-.288c-.069.41-.138.786-.192,1.164a.2.2,0,0,0,.091.171C421.316,205.608,421.821,205.825,422.359,206.06Zm-1.156-3.476c-.033.153-.065.285-.09.418-.048.256-.2.572-.107.752s.442.263.683.376c.323.153.651.3,1,.452.086-.372.169-.714.238-1.059a.19.19,0,0,0-.081-.157C422.311,203.1,421.77,202.851,421.2,202.584Zm9.751-.926-.02.035,1.038,2a.3.3,0,0,0,.1.124c.292.163.588.318.893.482a1.463,1.463,0,0,0-.029-1.224,1.1,1.1,0,0,0-.423-.457c-.235-.128-.459-.276-.688-.417Zm8.738-2.852-.428,1.408,1.392.542c.1-.449.2-.872.289-1.3a.209.209,0,0,0-.1-.165c-.362-.161-.73-.311-1.148-.485Zm-.889,2.927,1.439.563c.113-.423.22-.807.313-1.194a.2.2,0,0,0-.068-.178c-.417-.17-.84-.327-1.283-.5Zm26.869.893c.109.063.164.1.223.129.768.368,1.548.714,2.3,1.11.417.219.794.047,1.193.018a.1.1,0,0,0-.049-.067q-1.231-.652-2.463-1.3a.323.323,0,0,0-.174-.047C466.379,202.512,466.055,202.566,465.672,202.626Zm3.856-4.933-.274,1.744c.51-.084.977-.153,1.44-.242.119-.023.231-.765.129-.821-.42-.226-.838-.442-1.295-.68Zm-2.353,4.717c.093.054.143.086.2.114.7.373,1.428.715,2.108,1.128.456.277.871.1,1.309.049a.312.312,0,0,0-.11-.091c-.7-.365-1.419-.7-2.1-1.1A1.729,1.729,0,0,0,467.175,202.41Zm-26.989.111-1.451-.565-.3,1.021,1.445.68Zm-17.174.638c.06-.275.105-.515.166-.752.034-.132-.012-.19-.131-.241-.316-.136-.627-.284-.939-.428-.218-.1-.435-.2-.674-.317-.056.279-.111.525-.15.773a.187.187,0,0,0,.072.16c.539.268,1.083.527,1.656.8Zm46.647-18.726a3.459,3.459,0,0,1-.208-2.039,1.663,1.663,0,0,1,.853-1.442.946.946,0,0,0-1.2.6c-.006.017-.011.034-.016.051a3.734,3.734,0,0,0-.143,1.929A1.215,1.215,0,0,0,469.659,184.433Zm5.763,16.441a5.166,5.166,0,0,0-.228.587.332.332,0,0,0,.078.272c.289.285.6.552.892.829.164.153.323.313.483.47l.079-.02v-1.254a.278.278,0,0,0-.093-.207C476.241,201.326,475.845,201.112,475.422,200.874Zm-1.012-20.521c-.086.009-.2.026-.313.031a.475.475,0,0,0-.474.335,3.033,3.033,0,0,0-.144.6,3.3,3.3,0,0,0,.5,2.44,1.2,1.2,0,0,0,.593.441A3.543,3.543,0,0,1,474.41,180.353ZM448.283,178.8a6.667,6.667,0,0,0-.057-.746.711.711,0,0,0-.565-.6,1.158,1.158,0,0,0-1.087.2.376.376,0,0,0,.144.634c.266.1.532.194.8.283C447.756,178.645,448,178.714,448.283,178.8Zm-27.629,26.748c-.039.312-.078.577-.1.844a.229.229,0,0,0,.081.189c.466.209.939.4,1.435.613l.24-.919Zm51.473-2.037c-.067-.036-.133-.072-.2-.106-.726-.368-1.471-.7-2.17-1.117a1.74,1.74,0,0,0-1.257-.087c.09.056.137.088.187.115.729.379,1.477.726,2.181,1.147A1.568,1.568,0,0,0,472.127,203.512Zm-11.059-1.49c.158.567.638.763,1.083,1.031.116-.437.229-.856.334-1.277a.151.151,0,0,0-.047-.133c-.3-.19-.6-.371-.932-.57l-.2.906Zm1.118-3.68c-.093.37-.18.7-.256,1.037a.177.177,0,0,0,.054.154c.308.211.621.412.959.632.112-.4.216-.772.311-1.142a.153.153,0,0,0-.059-.13C462.871,198.711,462.541,198.535,462.186,198.342Zm-3.788,4.506c.114.071.164.1.216.134.646.37,1.306.717,1.933,1.116.352.224.68.064,1.021.073-.732-.484-1.467-.942-2.2-1.4a.262.262,0,0,0-.151-.042c-.253.033-.5.073-.82.119Zm-18.366-9.931c.031-.02.05-.026.055-.037q.539-1.347,1.074-2.7a.212.212,0,0,0,0-.171c-.165-.246-.341-.485-.543-.767Zm6.991,11.8-.01.048.2.1c.619.27,1.25.514,1.852.817.388.2.708.01,1.063-.055-.678-.344-1.36-.657-2.044-.966a.377.377,0,0,0-.178-.033c-.293.029-.588.063-.883.1Zm28.652-5.252c-.053.242-.111.493-.163.744-.072.357-.07.357.241.527.215.118.428.239.643.356.1.056.209.106.332.169.014-.3.03-.557.036-.817a.224.224,0,0,0-.055-.16c-.336-.272-.677-.537-1.034-.818Zm-22.084,4.145c.025.033.034.056.051.066q.916.555,1.833,1.106a.266.266,0,0,0,.15.047c.255-.026.509-.062.823-.1-.114-.07-.175-.11-.238-.147a15.966,15.966,0,0,1-1.463-.87A1.257,1.257,0,0,0,453.591,203.61Zm8.243-3.861c-.084.335-.165.646-.237.958a.157.157,0,0,0,.049.134c.3.188.615.368.949.565.089-.313.174-.6.246-.885a.182.182,0,0,0-.065-.149c-.3-.207-.61-.4-.941-.622ZM439.4,205.486c.034-.121.067-.229.095-.338.1-.384.1-.386-.26-.578s-.723-.381-1.105-.582l-.192.718a.881.881,0,0,0,.1.073C438.492,205.012,438.939,205.244,439.4,205.486Zm-17.963,2.94c-.356-.449-.894-.515-1.344-.738l-1.054.31c.446.211.9.327,1.307.524A1.28,1.28,0,0,0,421.44,208.426Zm16.475-3.482c-.172.425-.152.653.142.846.349.229.73.408,1.122.622.057-.226.11-.409.144-.6a.188.188,0,0,0-.073-.158c-.437-.236-.879-.467-1.335-.709Zm-2.084,1.2-.012.051c.064.037.126.079.192.112q.719.36,1.438.716a1.122,1.122,0,0,0,.975-.064c-.586-.3-1.163-.6-1.743-.891a.408.408,0,0,0-.221-.03C436.249,206.066,436.04,206.107,435.831,206.144Zm23.572-1.8c-.73-.408-1.414-.77-2.076-1.168a1.053,1.053,0,0,0-.857-.011c.649.379,1.312.716,1.951,1.094A1.19,1.19,0,0,0,459.4,204.348Zm.281-1.685v.059l2.065,1.284a13.269,13.269,0,0,0-.661-1.254.4.4,0,0,0-.285-.187c-.372.009-.743.061-1.115.1Zm-21.31.515c-.05.163-.083.3-.136.436a.168.168,0,0,0,.1.254c.268.132.531.275.8.414l.511.272c.055-.212.108-.388.142-.568a.183.183,0,0,0-.068-.157c-.434-.22-.877-.428-1.345-.655Zm33.62-16.41c-.026.033-.041.043-.042.056q-.121.851-.238,1.7a.421.421,0,0,0,.016.173c.082.28.336.287.575.364.067-.378.132-.739.191-1.1a.287.287,0,0,0-.029-.155C472.314,187.465,472.158,187.125,471.994,186.768ZM430.1,206.446c.083.049.138.086.2.116.656.331,1.317.653,1.968.994.274.143.51-.025.767-.023-.7-.369-1.406-.7-2.1-1.063A.846.846,0,0,0,430.1,206.446Zm-28.947,3.508a1.6,1.6,0,0,0,.148.081q.872.384,1.746.763c.411.178.412.175.586-.237a.17.17,0,0,0,0-.032A3.535,3.535,0,0,0,401.156,209.954Zm47.414-5.335.191.1a14.075,14.075,0,0,1,1.367.659,1.387,1.387,0,0,0,1.2.01c-.11-.055-.174-.091-.241-.12-.435-.191-.884-.357-1.3-.577A1.965,1.965,0,0,0,448.57,204.619Zm16.792-1.894c.153.3.272.6.608.74.422.18.829.4,1.243.6a1.052,1.052,0,0,0,.834-.041Zm-7.923.286.213.121c.649.361,1.306.708,1.943,1.088a1.107,1.107,0,0,0,.781.043c-.114-.07-.177-.111-.242-.148-.576-.334-1.171-.64-1.723-1.01a1.046,1.046,0,0,0-.972-.1Zm-2.742.419c.1.065.153.111.216.147.543.317,1.1.615,1.627.955a1.041,1.041,0,0,0,.864.058c-.088-.058-.141-.1-.2-.13-.556-.325-1.124-.632-1.665-.98a.992.992,0,0,0-.841-.051Zm-19.989,3c.552.258,1.071.468,1.557.738a1.31,1.31,0,0,0,1.05.034c-.1-.055-.16-.092-.224-.124a11.81,11.81,0,0,1-1.183-.611,1.169,1.169,0,0,0-1.2-.039Zm20.423-1.524v-.068c-.577-.349-1.159-.69-1.728-1.052a.733.733,0,0,0-.654-.047c.476.39.919.755,1.364,1.116a.216.216,0,0,0,.126.048c.3,0,.6,0,.892,0ZM400.3,210.159l2.859,1.263.157-.275-.269-.122c-.749-.333-1.5-.656-2.244-1a.346.346,0,0,0-.479.093A.336.336,0,0,0,400.3,210.159Zm20.089-1.385v-.055c-.448-.155-.91-.281-1.341-.474-.4-.18-.713.02-1.056.148.537.22,1.076.413,1.615.6a.176.176,0,0,0,.111,0C419.947,208.93,420.169,208.854,420.392,208.774Zm27.46-28.529.268-.186c-.077-.072-.143-.177-.234-.212-.445-.169-.9-.321-1.346-.474a1.072,1.072,0,0,0-.378-.085c-.1.006-.184.1-.276.149.059.08.1.2.179.233a7.2,7.2,0,0,0,.8.3c.31.1.63.18.987.279Zm-1.06,2.541.226-.12a1.431,1.431,0,0,0-.127-.217.364.364,0,0,0-.155-.094c-.463-.156-.927-.312-1.394-.457a.384.384,0,0,0-.265.016.316.316,0,0,0-.163.214c0,.067.1.163.178.193a5.309,5.309,0,0,0,.552.153Zm-15.8,23.425-.007.064,2.552,1.24.036-.069a4.336,4.336,0,0,0-.654-.353c-.184-.064-.263-.152-.233-.328a.337.337,0,0,0-.237-.413l-.037-.008c-.151-.051-.288-.143-.436-.206a.509.509,0,0,0-.239-.056c-.251.036-.5.092-.746.133Zm42.821-17.273a2.059,2.059,0,0,0-.18-1.886l-.464,1.587Zm-28.11-8.37c-.065.054-.215.118-.241.215-.047.174.122.213.259.252.251.07.5.149.75.22s.486.14.734.186c.069.013.153-.061.231-.1-.036-.07-.054-.171-.111-.205A4.778,4.778,0,0,0,445.7,180.568Zm-16.4,26.106c.738.367,1.451.738,2.181,1.072.144.066.353-.009.532-.019-.632-.377-1.268-.684-1.878-1.036A.74.74,0,0,0,429.3,206.674Zm26.351-3.381c.092.057.154.1.217.135.55.32,1.114.619,1.646.967a1.115,1.115,0,0,0,.861.091c-.111-.069-.17-.109-.232-.144-.625-.344-1.255-.679-1.872-1.034a.7.7,0,0,0-.623-.017Zm-35.087,3.5a3.739,3.739,0,0,0,1.2,1.368c.07-.206.148-.411.2-.621a.2.2,0,0,0-.072-.176c-.436-.19-.873-.374-1.336-.57Zm-17.729,5.181-2.111-.886a1.245,1.245,0,0,0,.7.722c.326.108.639.257.958.387S402.692,212.313,402.838,211.974Zm45.284-6.021c-.109-.052-.169-.082-.231-.109-.66-.287-1.324-.564-1.977-.866a.951.951,0,0,0-.7,0,1.009,1.009,0,0,0,.253.149c.629.261,1.265.507,1.886.786a1.069,1.069,0,0,0,.769.035Zm-6.272-17.379-1.236.25.717.963Zm-33.765.961.74-1.073-.029-.05-1.469.5Zm11.27,19.581c-.487-.179-.956-.323-1.4-.523a1.08,1.08,0,0,0-.894.065c.53.192,1.019.346,1.487.546A.755.755,0,0,0,419.355,209.116Zm29.606-3.275a.486.486,0,0,0-.083-.067c-.749-.316-1.5-.638-2.252-.94a1.532,1.532,0,0,0-.458-.031l-.011.07c.075.034.149.069.225.1.633.277,1.271.543,1.9.837A.912.912,0,0,0,448.961,205.841Zm-48.708,4.546-.079.079a1.917,1.917,0,0,0,.36.275c.762.339,1.53.666,2.3.987.052.022.137-.035.206-.056l-.023-.062Zm51.838-5.1c-.592-.325-1.125-.6-1.643-.908-.246-.144-.433-.031-.7.046.678.306,1.29.591,1.91.856a1.345,1.345,0,0,0,.434,0Zm-15.108.694,2.029,1.053.036-.057a.472.472,0,0,0-.064-.083,6.913,6.913,0,0,1-.723-.6,1.076,1.076,0,0,0-1.152-.351ZM418.6,209.4l-1.781-.64a5.306,5.306,0,0,0,.573.508c.525.435.524.437,1.158.177A.3.3,0,0,0,418.6,209.4Zm-14.564.5c-.438-.407-.868-.139-1.308-.013l1.049.457Zm4.529-.546.046.051,1.05-.624-1.188-.561a3.8,3.8,0,0,0,.377.67c.1.153.1.265-.1.333a.812.812,0,0,0-.184.129Zm27.7-1.956a.4.4,0,0,0-.061-.055c-.562-.277-1.123-.556-1.69-.824a.669.669,0,0,0-.26,0l-.01.068c.068.044.133.094.2.132.4.218.811.429,1.211.653a.59.59,0,0,0,.609.024Zm-5.2.463.008-.058-1.611-.79c.283.31.576.6.871.879a.144.144,0,0,0,.1.04c.211-.023.421-.049.631-.074Zm1.692-2.45.047-.008c.044-.262.091-.524.131-.787.006-.039-.006-.106-.032-.121-.214-.119-.433-.229-.7-.366Zm13.019.056c.463.653.772.775,1.488.579Zm-10.728,2.28.011-.072c-.5-.267-.993-.537-1.494-.8-.049-.026-.127,0-.246.011.488.3.911.581,1.349.832C434.763,207.774,434.916,207.739,435.044,207.746Zm.494-.191c-.006-.013-.008-.032-.018-.037-.494-.279-.988-.559-1.486-.829-.058-.032-.145-.011-.271-.017A5.169,5.169,0,0,0,435.538,207.555Zm-33.146,4.87-1.082-.41.4.634Zm63.647-8.7c.336.528.5.6.9.434Zm-4.436-.705.391.676C462.152,203.312,462.128,203.268,461.6,203.02Zm-29.34,2.96-.024.065.433.218.037-.209Zm-11.476,1.78.024-.044-.237-.282-.137.182Z"/>
    <path id="Path_237" data-name="Path 237" d="M461.116,220.071c-.368-.017-.707-.01-1.039-.052-.578-.073-.8-.363-.7-.936a5.531,5.531,0,0,1,.269-.8,5.485,5.485,0,0,0,.2-.6,1.881,1.881,0,0,1,.738-1.178,8.693,8.693,0,0,0,.4.81,1.9,1.9,0,0,0,.379.349,2.761,2.761,0,0,0,.31.273.672.672,0,0,0,.253.062.3.3,0,0,0,.392-.265c.019-.083.12-.156.2-.213a7.66,7.66,0,0,1,.663-.452.34.34,0,0,1,.286-.006.264.264,0,0,1,.025.252c-.269.283-.2.551-.049.864.088.189.18.237.361.2.594-.117,1.2-.2,1.782-.354a10.587,10.587,0,0,0,2.617-1.066,2.924,2.924,0,0,0,.3-.209,1.3,1.3,0,0,0-.112-2.227,2.434,2.434,0,0,0-1.291-.368c-1.1-.018-2.2-.017-3.3-.039a4.613,4.613,0,0,1-.958-.109,1.216,1.216,0,0,1-1.078-1.341,1.183,1.183,0,0,1,.047-.228c.091-.47.287-.919.425-1.38a4.683,4.683,0,0,0,.143-.642,3.746,3.746,0,0,0,.005-.437,1.482,1.482,0,0,1,.5-1.147,3.165,3.165,0,0,0,.926-1.486,1.665,1.665,0,0,0,.049-.385c.013-.155.008-.345.212-.35s.2.187.206.342c.009.222.017.444.035.665a.378.378,0,0,0,.128.23,3.99,3.99,0,0,0,.183-.392,1.485,1.485,0,0,1,1.143-1.138c.475-.075.672-.4.873-.761.048-.087.172-.214.225-.2a.436.436,0,0,1,.236.234,2.131,2.131,0,0,1,.122.49c.022.131.076.183.214.173.2-.015.4,0,.6-.012a2.245,2.245,0,0,1,.935.189,5.6,5.6,0,0,0,1.093.24c.285.048.575.058.862.1.184.023.362.081.471-.153a.252.252,0,0,1,.229-.089.3.3,0,0,1,.17.21c.029.336.02.676.048,1.012a.763.763,0,0,0,.132.341c.11.165.258.306.367.472.071.11.126.178.269.129a.188.188,0,0,1,.253.082.209.209,0,0,1,.02.073c.026.1.075.2.1.3a.661.661,0,0,0,.452.484.213.213,0,0,1,.182.239l-.006.028c-.011.084-.011.169-.023.252a.632.632,0,0,1-.669.593h0a1.049,1.049,0,0,0-.825.257.751.751,0,0,1-.4.154c-.385.055-.515-.053-.568-.419-.336-.089-.663-.185-1-.262a.371.371,0,0,1-.333-.3.264.264,0,0,0-.092-.148,2.508,2.508,0,0,1-.373-.238,1.012,1.012,0,0,0-.933-.28,2.8,2.8,0,0,0-1.706.926.755.755,0,0,0-.169.367c-.05.333-.069.671-.1,1.032a9.463,9.463,0,0,0,2.131.458c.684.013,1.368,0,2.052.021.416.01.516.2.318.558l1.7,1.253.13.1a1.04,1.04,0,0,1,.5,1.382l-.021.043c-.189.594-.425,1.171-.592,1.776a2.65,2.65,0,0,1-1.064,1.328c-.444.341-.885.687-1.311,1.05a3.219,3.219,0,0,1-1.111.637,2.3,2.3,0,0,0-.412.2c-.333.191-.657.4-.994.582a2.28,2.28,0,0,1-2.085.069,1.287,1.287,0,0,0-1.009.043,2.512,2.512,0,0,1-1.036.168c-.7-.019-1.4-.007-2.1-.049-.445-.027-.576-.214-.538-.657C461.017,220.555,461.073,220.324,461.116,220.071Z"/>
    <path id="Path_238" data-name="Path 238" d="M415.267,215.9c-.34-.09-.672-.173-1-.266-.085-.024-.22-.063-.234-.119-.089-.364-.458-.427-.675-.651a.894.894,0,0,0-.824-.189,2.818,2.818,0,0,0-1.67.9.889.889,0,0,0-.2.426c-.052.324-.065.654-.1,1a9,9,0,0,0,2.37.459c.6-.017,1.2,0,1.8.015.431.012.526.19.335.561l1.833,1.354c.577.428.7.69.484,1.384-.193.624-.439,1.232-.622,1.863a2.6,2.6,0,0,1-.994,1.241c-.481.38-.95.778-1.442,1.143a7.332,7.332,0,0,1-.864.517c-.247.136-.508.247-.757.38-.318.171-.623.365-.945.527a2.115,2.115,0,0,1-1.809.057,1.486,1.486,0,0,0-1.161-.005,2.487,2.487,0,0,1-1.013.165c-.7-.019-1.4,0-2.1-.047-.468-.029-.594-.216-.55-.691.021-.227.076-.45.12-.7h-.708c-.956-.014-1.278-.485-.944-1.383.056-.15.144-.289.2-.439a2.83,2.83,0,0,0,.17-.518,1.948,1.948,0,0,1,1.727-1.611c.141-.025.294.007.325.181s-.118.225-.256.261c-.34.088-.34.088-.238.415,0,.015.016.032.011.044-.15.361.121.608.252.888a.277.277,0,0,0,.223.11.8.8,0,0,1,.677.166,1.029,1.029,0,0,0,.607.213,7.059,7.059,0,0,0,2.383-.345,11.656,11.656,0,0,0,2.659-1.085,2.823,2.823,0,0,0,.3-.209,1.294,1.294,0,0,0-.1-2.214,2.4,2.4,0,0,0-1.289-.375c-1.1-.019-2.2-.017-3.3-.04a4.679,4.679,0,0,1-.958-.106,1.244,1.244,0,0,1-1.1-1.377,1.28,1.28,0,0,1,.04-.2,5.791,5.791,0,0,1,.988-2.337,9.823,9.823,0,0,1,2.342-2.52c.171-.126.3-.306.466-.444a2.359,2.359,0,0,1,2.137-.649.513.513,0,0,0,.544-.169c.147-.177.283-.363.428-.54.2-.243.4-.489.612-.717a.316.316,0,0,1,.276-.084.448.448,0,0,1,.16.271c.032.124.015.26.037.388.051.3.213.378.491.232.143-.075.275-.169.416-.247.269-.148.493-.026.472.281a4.287,4.287,0,0,1-.151.571.9.9,0,0,0,.008.293c.011.082.067.165.056.241-.033.247.1.374.269.531.363.338.687.718,1.028,1.08.033.035.08.093.113.088a4.415,4.415,0,0,0,.694-.137.6.6,0,0,1,.635.179c.127.169.1.362-.1.55a.376.376,0,0,0-.126.364,1.939,1.939,0,0,1-.016.527.616.616,0,0,1-.652.559,1.034,1.034,0,0,0-.844.267.6.6,0,0,1-.269.125C415.537,216.42,415.341,216.3,415.267,215.9Z"/>
    <path id="Path_239" data-name="Path 239" d="M435.218,218.088l-.345-.264c-.318.068-.635.153-.958.2a.353.353,0,0,0-.35.3c-.121.435-.3.853-.441,1.283a.559.559,0,0,0,.014.524c.051.081-.033.257-.074.384-.117.362-.248.72-.363,1.083a.839.839,0,0,0,0,.245c.42.147.467.312.228.687-.191.3-.368.61-.551.915l.056.075a3.214,3.214,0,0,1,.392-.028c.1,0,.236.016.282.079a.343.343,0,0,1-.008.292c-.13.269-.281.529-.432.787a.313.313,0,0,1-.548.075c-.051-.047-.1-.1-.147-.146-.112-.106-.207-.094-.312.025-.28.319-.393.315-.669-.008a.235.235,0,0,0-.321-.086l-.007,0a1.423,1.423,0,0,1-.565.06,2.037,2.037,0,0,0-1,.325.63.63,0,0,1-.248.022c0-.077-.033-.171,0-.229a9.943,9.943,0,0,0,1.053-3.414c.025-.175.077-.348-.166-.454a.416.416,0,0,1-.15-.353c.055-.408.144-.812.234-1.214.1-.464.225-.923.328-1.387a.564.564,0,0,0-.049-.229,1.406,1.406,0,0,1-.108-.447c.214-1.929.441-3.857.665-5.785.023-.2.088-.351.317-.394.053-.01.113-.111.128-.18.041-.2.042-.4.1-.589.027-.09.14-.21.218-.214s.2.1.245.188c.118.22.211.289.413.173a2.3,2.3,0,0,1,1.27-.26,2.918,2.918,0,0,0,1.32-.242,6.63,6.63,0,0,1,3.443-.414,2.456,2.456,0,0,1,2.378,2.16,1.035,1.035,0,0,0,.521.913,1.075,1.075,0,0,1,.157,1.46c-.223.328-.512.611-.762.922a3.614,3.614,0,0,0-.332.491,2.661,2.661,0,0,1-1.062.928c-.1.059-.2.108-.318.17.366.411-.081.6-.239.871.251.122.292.263.181.524a1.138,1.138,0,0,0,.054.606,12.514,12.514,0,0,0,1.309,3.5c.064.114.118.213.3.168.149-.037.241.11.2.276-.027.109-.061.217-.1.35a1.159,1.159,0,0,1,.3.006.326.326,0,0,1,.2.147c.02.062-.048.165-.1.224a6.8,6.8,0,0,0-.491.5.422.422,0,0,1-.491.2,1.777,1.777,0,0,0-1.277.118c-.255.122-.311.093-.472-.173-.163.069-.327.148-.5.21-.379.137-.5.066-.567-.333-.007-.037-.015-.074-.025-.121l-.063.024-.313.128c-.042-.108-.128-.22-.117-.323a10.209,10.209,0,0,0-.353-3.354c-.109-.471-.242-.936-.358-1.4-.035-.141-.082-.227-.257-.223C435.251,218.447,435.225,218.243,435.218,218.088Zm-1.959-5.287a2.357,2.357,0,0,0-.146.566,5.548,5.548,0,0,1-.206,1.313,3.655,3.655,0,0,0-.073.867c0,.223.125.282.315.169a7.594,7.594,0,0,0,.8-.5,1.386,1.386,0,0,1,.894-.289c.544,0,1.088-.046,1.631-.086a.709.709,0,0,0,.7-.642c.051-.3.079-.608.119-.911.022-.169-.031-.244-.22-.257a1.528,1.528,0,0,1-.62-.139.3.3,0,0,0-.365.015.9.9,0,0,1-.678.156.354.354,0,0,1-.341-.368v-.529c-.406.12-.793.2-.932.643a.281.281,0,0,1-.051.076c-.109.153-.256.282-.442.224C433.518,213.076,433.419,212.937,433.259,212.8Z"/>
    <path id="Path_240" data-name="Path 240" d="M422.551,216.392c.39.124.411.218.239.917l.568.192a4.729,4.729,0,0,1,.416-.371.417.417,0,0,1,.322-.091c.085.034.135.181.177.288a3.41,3.41,0,0,1,.1.382,1.747,1.747,0,0,0,.432-.163,1.851,1.851,0,0,0,.707-.942,2.224,2.224,0,0,1,.245-.493.459.459,0,0,1,.533-.226c.226.062.265.255.287.453a.371.371,0,0,0,.059.192,4.488,4.488,0,0,0,.254-.448,1.829,1.829,0,0,1,.6-.767c.178-.131.317-.315.494-.449a.367.367,0,0,1,.307-.069c.073.035.112.182.126.285a.578.578,0,0,1-.047.293,6.807,6.807,0,0,0-.354,2.54v.461a.318.318,0,0,1-.19.333.443.443,0,0,0-.186.213c-.086.2-.143.421-.223.629s-.176.233-.369.123a.225.225,0,0,0-.1-.04c-.62.022-1.241.036-1.859.076-.758.048-1.513.126-2.271.173a.568.568,0,0,0-.533.482c-.177.754-.309,1.518-.458,2.278a.274.274,0,0,0,0,.07.992.992,0,0,1,.371.087c.082.062.1.207.166.361a2.063,2.063,0,0,0,.365-.139c.3-.174.59-.36.879-.549s.588-.136.615.3c.015.238.158.3.358.159.15-.105.273-.249.422-.357s.314-.18.466-.278a.872.872,0,0,0,.236-.2c.141-.192.246-.412.4-.589a.517.517,0,0,1,.362-.17c.18.011.2.194.185.343-.022.252-.06.5-.091.753-.013.1-.028.21-.042.315l.057.052c.111-.088.225-.173.332-.266.135-.116.245-.322.461-.207.2.1.134.309.1.479-.125.64-.258,1.279-.389,1.919a.322.322,0,0,1-.341.278c-.952.042-1.9.089-2.854.133a2.665,2.665,0,0,0-1.22.292c-.26.147-.392.082-.486-.2-.134-.4-.259-.433-.584-.155a6.059,6.059,0,0,1-.558.48.746.746,0,0,1-.4.074c-.175,0-.349-.056-.523-.051-.324.009-.473-.2-.61-.438-.051-.09-.111-.175-.192-.3a2.275,2.275,0,0,1-1.742.945,1.957,1.957,0,0,0,.054-.306c.007-.129-.03-.262-.017-.39a1.366,1.366,0,0,1,.1-.406c.071-.159.189-.3.259-.456a.827.827,0,0,0,.021-.289c0-.083-.025-.188.015-.245a3.877,3.877,0,0,0,.45-1.535c.24-1.182.426-2.374.654-3.558.124-.648.292-1.287.43-1.932a1.687,1.687,0,0,0-.012-.333,2.8,2.8,0,0,1,.017-.593,2.531,2.531,0,0,0,.062-1.085,1.344,1.344,0,0,1,.116-.728,1.59,1.59,0,0,0,.191-.858.474.474,0,0,1,.214-.521c.044-.027.055-.1.089-.154a1.254,1.254,0,0,1,.109-.135,4.508,4.508,0,0,1,.334-.624,5.878,5.878,0,0,0,.873-1.295c.026-.064.221-.135.254-.106a.433.433,0,0,1,.144.3,5.38,5.38,0,0,1-.1.633,1.142,1.142,0,0,0,0,.185,2.567,2.567,0,0,0,2.119-.089c.476-.166.967-.29,1.45-.436a.274.274,0,0,0,.125-.081c.155-.188.294-.389.456-.569a.406.406,0,0,1,.557-.139.417.417,0,0,1,.127.12.161.161,0,0,0,.224.042.167.167,0,0,0,.06-.078,5.86,5.86,0,0,0,.323-.707c.079-.207.117-.43.2-.637a.392.392,0,0,1,.422-.29.361.361,0,0,1,.325.341c.094.606.179,1.214.25,1.824.06.511.1,1.024.135,1.537a.352.352,0,0,1-.119.284c-.07.035-.2-.037-.3-.076a.983.983,0,0,1-.187-.154,5.888,5.888,0,0,1-.1.606,1.372,1.372,0,0,1-.174.319c-.022.037-.063.064-.081.1-.141.291-.236.311-.443.144a4.92,4.92,0,0,1-.606.239c-.692.175-1.386.342-2.084.492a2.476,2.476,0,0,0-1.114.4.794.794,0,0,0-.214.226,2.687,2.687,0,0,0-.358.962A2.445,2.445,0,0,1,422.551,216.392Z"/>
    <path id="Path_241" data-name="Path 241" d="M452.675,208.623c.23-.142.458-.287.69-.425.154-.092.312-.179.471-.262a.928.928,0,0,1,.193-.07c.116-.029.261-.1.343-.06s.075.209.116.346c.1-.037.234-.1.377-.141.382-.111.767-.212,1.149-.322a.3.3,0,0,0,.147-.085c.156-.186.295-.388.457-.568.233-.258.423-.251.689-.026a.249.249,0,0,0,.231.017c.238-.148.285-.142.4.11a.228.228,0,0,0,.113.114,1.246,1.246,0,0,0,.014-.252.659.659,0,0,1,.4-.728,1.792,1.792,0,0,1,.447-.175.318.318,0,0,1,.272.089c.041.063-.014.19-.029.288,0,.013-.017.025-.028.036a.739.739,0,0,0-.181.78c.107.483.186.974.248,1.466a1.61,1.61,0,0,1-.094.461c-.022.11-.034.222-.048.317a.91.91,0,0,0-.171.206c-.074.178-.17.226-.338.084-.12.165-.227.324-.348.472-.1.119-.214.1-.36-.019a4.593,4.593,0,0,1-.608.239c-.9.216-1.813.4-2.714.628a1.516,1.516,0,0,0-1.017,1.176c-.1.309-.181.625-.272.943.351.153.362.2.194.912l.564.2A4.848,4.848,0,0,1,454.4,214a.414.414,0,0,1,.323-.087c.085.035.132.183.175.29a3.881,3.881,0,0,1,.107.379,1.771,1.771,0,0,0,.432-.166,1.842,1.842,0,0,0,.7-.944,1.191,1.191,0,0,1,.4-.643,5.217,5.217,0,0,0,.117.536.928.928,0,0,0,.18.338c.23.254.347.235.557-.023a1.831,1.831,0,0,1,.4-.371c.2-.135.35-.047.382.2a2.053,2.053,0,0,0,.074.427.5.5,0,0,0,.2.267.365.365,0,0,1,.2.411c-.015.222.007.446-.009.668-.007.089-.052.229-.114.251-.219.079-.265.264-.33.442-.055.151-.093.309-.152.459-.076.194-.182.226-.356.126a.266.266,0,0,0-.118-.048c-.6.021-1.2.035-1.791.072-.773.048-1.544.126-2.317.17a.565.565,0,0,0-.543.471c-.184.783-.322,1.577-.478,2.366.138.024.288.008.374.075s.11.217.18.372a2.324,2.324,0,0,0,.371-.146c.3-.174.584-.37.881-.547.353-.211.541-.117.6.287.038.255.162.317.372.168.143-.1.26-.241.4-.342s.328-.187.485-.291a.893.893,0,0,0,.233-.209c.135-.186.25-.387.382-.576.091-.131.2-.241.385-.184s.189.213.176.361c-.022.252-.062.5-.093.753-.013.1-.025.209-.046.391.145-.1.239-.155.322-.224s.131-.16.215-.206.229-.109.3-.074a.335.335,0,0,1,.133.279c-.047.388-.121.773-.194,1.158-.052.271-.12.54-.179.81-.086.393-.126.411-.521.43-1.051.05-2.1.1-3.151.18a2.4,2.4,0,0,0-.739.233c-.315.137-.434.1-.534-.22-.114-.362-.242-.4-.544-.148-.2.162-.379.337-.571.5a.418.418,0,0,1-.427.082,1.673,1.673,0,0,0-.522-.059c-.317.011-.457-.2-.594-.425l-.193-.317a2.269,2.269,0,0,1-1.748.947,1.618,1.618,0,0,0,.047-.268c.006-.145-.025-.291-.012-.435a1.171,1.171,0,0,1,.1-.385,4.794,4.794,0,0,1,.253-.409.252.252,0,0,0,.04-.131,11.7,11.7,0,0,1,.445-1.845c.079-.639.245-1.266.36-1.9s.2-1.276.322-1.908c.12-.61.28-1.211.411-1.818a1.758,1.758,0,0,0-.011-.355,2.481,2.481,0,0,1,.017-.571,2.5,2.5,0,0,0,.059-1.13,1.329,1.329,0,0,1,.126-.705,1.515,1.515,0,0,0,.188-.836.607.607,0,0,1,.211-.547,1.107,1.107,0,0,0,.323-.61,1.052,1.052,0,0,1,.863-.807c.211-.023.421-.069.632-.086a.263.263,0,0,1,.214.08.333.333,0,0,1-.022.248,2.088,2.088,0,0,1-.2.3Z"/>
    <path id="Path_242" data-name="Path 242" d="M444.635,209.619a1.967,1.967,0,0,0,.011-.255,1.879,1.879,0,0,1,.851-1.6.275.275,0,0,1,.248-.042.329.329,0,0,1,.131.239c.011.314-.016.63,0,.945,0,.1.1.2.148.3a1.7,1.7,0,0,0,.219-.229c.05-.074.047-.185.1-.254s.164-.16.224-.144c.285.074.391-.112.5-.3a2.2,2.2,0,0,1,.1-.254.981.981,0,0,1,.216-.163c.051.083.145.166.144.248a2.434,2.434,0,0,1-.1.423c-.083.412-.168.825-.236,1.24a.526.526,0,0,0,.194.514.366.366,0,0,1,.08.5,2.181,2.181,0,0,0-.115.226c-.05.132-.1.249.109.325a.355.355,0,0,1,.138.317,2.527,2.527,0,0,1-.28.752.675.675,0,0,0-.039.8.454.454,0,0,1,.01.578,3.029,3.029,0,0,0-.47,1.668c-.054.908-.237,1.809-.367,2.713a18.549,18.549,0,0,0-.263,2.586c0,.644-.079,1.287-.132,1.93a.4.4,0,0,1-.4.4h-.014c-.161.012-.322.026-.483.029-.541.008-.571-.013-.792-.522-.149.128-.289.254-.433.373-.318.261-.56.222-.785-.147-.163.168-.317.336-.482.493a1.164,1.164,0,0,1-.221.134c-.037-.079-.113-.163-.1-.237.029-.266.092-.528.132-.793q.336-2.232.664-4.465a2.164,2.164,0,0,0,0-.322,3.05,3.05,0,0,1,.055-.513c.063-.253.22-.486.022-.758a.572.572,0,0,1-.018-.361c.028-.214-.072-.317-.255-.4-.313-.142-.316-.274-.04-.487a.355.355,0,0,0,.107-.162q.1-.291.177-.587a1.426,1.426,0,0,0,.055-.312,1.634,1.634,0,0,1,.121-.831.4.4,0,0,0-.051-.341c-.244-.355-.247-.521.156-.786a.93.93,0,0,0,.443-.879,11.638,11.638,0,0,1,.014-1.267c.024-.436.182-.52.588-.348A.44.44,0,0,1,444.635,209.619Z"/>
  </g>
</svg>
