<svg xmlns="http://www.w3.org/2000/svg" width="134.94" height="37.188" viewBox="0 0 134.94 37.188">
  <path id="Lootex_Logo" d="M85.976,40.523a17.837,17.837,0,0,1-30.575,2.5v4.232a.336.336,0,0,1-.307.335l-14.8,1.294a.671.671,0,0,1-.533-.194L31.2,40.14a.67.67,0,0,1-.164-.682l7.354-22.616a.672.672,0,0,1,.581-.462l15.294-1.337a.111.111,0,0,1,.116.146L46.407,39.7a.112.112,0,0,0,.106.147h7.092A17.809,17.809,0,0,1,85.976,25.015a17.837,17.837,0,0,1,30.8-2.181v-4.14a.336.336,0,0,1,.347-.335l32.229,1.108a.112.112,0,0,1,.1.147l-2.385,7.335a.672.672,0,0,1-.639.464H139.2a.672.672,0,0,0-.639.464l-7.88,24.235a.112.112,0,0,1-.186.045l-9.947-9.94a.672.672,0,0,1-.164-.683l4.544-13.974a.112.112,0,0,0-.106-.147h-5.824A17.812,17.812,0,0,1,85.976,40.523ZM150.9,28.73,149.41,33.3v3.056a.534.534,0,0,0,.541.547H156.5a.533.533,0,0,0,.383-.154.522.522,0,0,0,.159-.382v-.547a.511.511,0,0,0-.154-.376.5.5,0,0,0-.37-.154h-4.956V33.608h4.277a.511.511,0,0,0,.377-.154.52.52,0,0,0,.159-.381v-.536a.544.544,0,0,0-.536-.536h-4.277V30.343h4.967a.512.512,0,0,0,.376-.154.52.52,0,0,0,.16-.382v-.536a.519.519,0,0,0-.16-.381.5.5,0,0,0-.376-.16Zm6.834,8.171a.279.279,0,0,1-.319-.256.473.473,0,0,1,.12-.279L160.4,32.7l-2.709-3.43a.455.455,0,0,1-.12-.279q0-.262.313-.262h1.226a1.249,1.249,0,0,1,1,.541l1.562,1.983,1.562-1.983a1.262,1.262,0,0,1,1-.541h1.226q.314,0,.314.262a.471.471,0,0,1-.12.279l-2.708,3.43,2.874,3.664a.434.434,0,0,1,.12.239.276.276,0,0,1-.023.131.28.28,0,0,1-.3.165h-1.214a1.238,1.238,0,0,1-.992-.536l-1.739-2.216-1.739,2.216a1.238,1.238,0,0,1-.992.536Z" transform="translate(-31 -15)" fill="#d0fe55" fill-rule="evenodd"/>
</svg>
