<svg id="Group_572" data-name="Group 572" xmlns="http://www.w3.org/2000/svg" width="105.999" height="38.276" viewBox="0 0 105.999 38.276">
  <g id="Group_360" data-name="Group 360" transform="translate(49.57 16.729)">
    <g id="Group_356" data-name="Group 356" transform="translate(0 5.002)">
      <path id="Path_41" data-name="Path 41" d="M138.1,127.53a.575.575,0,0,1,.816-.073,6.283,6.283,0,0,0,3.6,1.36,3.557,3.557,0,0,0,2.23-.716,1.763,1.763,0,0,0,.885-1.427,1.819,1.819,0,0,0-.841-1.428,5.864,5.864,0,0,0-2.493-.86l-.046-.022a6.733,6.733,0,0,1-2.662-.9,2.436,2.436,0,0,1-1.271-2.094,2.888,2.888,0,0,1,1.271-2.288,5.1,5.1,0,0,1,2.877-.784,6.326,6.326,0,0,1,3.5,1.263.6.6,0,0,1,.17.806.579.579,0,0,1-.792.169,5.145,5.145,0,0,0-2.878-1.166,3.557,3.557,0,0,0-2.229.665,1.747,1.747,0,0,0-.743,1.336,1.409,1.409,0,0,0,.67,1.165,5.97,5.97,0,0,0,2.4.81h.049a8.119,8.119,0,0,1,2.854.953,2.9,2.9,0,0,1,1.316,2.381,2.96,2.96,0,0,1-1.34,2.355,4.813,4.813,0,0,1-2.925.928,7.179,7.179,0,0,1-4.343-1.665A.532.532,0,0,1,138.1,127.53Z" transform="translate(-137.972 -118.293)" fill="#d0fe55"/>
    </g>
    <g id="Group_357" data-name="Group 357" transform="translate(14.422)">
      <path id="Path_42" data-name="Path 42" d="M169.27,120.029a3.742,3.742,0,0,0-7.457,0V126.6c0,.048-.024.068-.024.1-.025.045-.025.071-.048.094a.555.555,0,0,1-.361.286.089.089,0,0,1-.046.022h-.122a.675.675,0,0,1-.457-.19.755.755,0,0,1-.094-.19.5.5,0,0,1-.025-.19V111.005a.581.581,0,0,1,.575-.572.588.588,0,0,1,.6.572v6.142a4.866,4.866,0,0,1,3.716-1.712,4.67,4.67,0,0,1,4.915,4.594v6.5a.587.587,0,0,1-.6.571.579.579,0,0,1-.574-.571Z" transform="translate(-160.636 -110.433)" fill="#d0fe55"/>
    </g>
    <g id="Group_358" data-name="Group 358" transform="translate(28.524 5.002)">
      <path id="Path_43" data-name="Path 43" d="M188.359,118.293a5.839,5.839,0,1,1-5.563,5.83A5.725,5.725,0,0,1,188.359,118.293Zm0,10.523a4.713,4.713,0,1,0-4.412-4.693A4.581,4.581,0,0,0,188.359,128.816Z" transform="translate(-182.796 -118.293)" fill="#d0fe55"/>
    </g>
    <g id="Group_359" data-name="Group 359" transform="translate(43.755 5.002)">
      <path id="Path_44" data-name="Path 44" d="M206.73,124.317v-5.454a.588.588,0,0,1,1.176,0v1.691a5.571,5.571,0,0,1,4.46-2.261,5.8,5.8,0,0,1,0,11.593,5.527,5.527,0,0,1-4.46-2.285v6.665a.588.588,0,0,1-1.176,0Zm1.176-.24a4.487,4.487,0,1,0,8.967,0,4.485,4.485,0,1,0-8.967-.189Z" transform="translate(-206.73 -118.293)" fill="#d0fe55"/>
    </g>
  </g>
  <g id="Group_361" data-name="Group 361" transform="translate(0 0)">
    <path id="Path_45" data-name="Path 45" d="M79.189,91.043a6.9,6.9,0,1,0,0,13.8,6.609,6.609,0,0,0,1.651-.218,2.477,2.477,0,0,0,1.826-1.51l.025.437c.164,1.283,1.128,1.291,3.449,1.291v-6.9A6.928,6.928,0,0,0,79.189,91.043Zm0,10.352a3.449,3.449,0,1,1,3.477-3.448A3.463,3.463,0,0,1,79.189,101.4ZM70.5,87.6c2.619,0,3.476-.911,3.476-3.454H63.551c-2.621,0-3.476.907-3.476,3.454v17.249h.031c2.6-.008,3.446-.918,3.446-3.452V94.5h3.473c2.622,0,3.477-.907,3.477-3.454h-6.95V89.32c0-1.269.426-1.721,1.737-1.721Zm71.242,10.35V101.4c0,2.6.914,3.452,3.475,3.452v-6.9a3.431,3.431,0,0,1,1.765-2.988h-.026c1.236-.744,1.739-1.41,1.739-3.915A6.93,6.93,0,0,0,141.744,97.948Zm17.377-6.9a6.9,6.9,0,1,0,0,13.8,6.6,6.6,0,0,0,1.649-.218,2.477,2.477,0,0,0,1.827-1.51l.026.437c.163,1.283,1.126,1.291,3.45,1.291v-6.9A6.931,6.931,0,0,0,159.121,91.043Zm0,10.352a3.449,3.449,0,1,1,3.476-3.448A3.464,3.464,0,0,1,159.121,101.4Zm-69.506,0c0,2.6.914,3.452,3.477,3.452v-6.9a3.475,3.475,0,0,1,6.949,0V101.4c0,2.6.913,3.452,3.476,3.452v-6.9a6.951,6.951,0,0,0-13.9,0Zm41.7-10.352a6.9,6.9,0,1,0,6.952,6.9A6.927,6.927,0,0,0,131.319,91.043Zm0,10.352a3.449,3.449,0,1,1,3.474-3.448A3.462,3.462,0,0,1,131.319,101.4Zm-13.9-13.832V92a6.871,6.871,0,1,0,3.475,5.944v-13.8C118.284,84.144,117.427,85.045,117.418,87.563ZM113.941,101.4a3.449,3.449,0,1,1,3.476-3.448A3.462,3.462,0,0,1,113.941,101.4Z" transform="translate(-60.075 -84.144)" fill="#d0fe55"/>
  </g>
</svg>
