<svg id="Group_571" data-name="Group 571" xmlns="http://www.w3.org/2000/svg" width="109.321" height="43.82" viewBox="0 0 109.321 43.82">
  <g id="Group_569" data-name="Group 569" transform="translate(0)">
    <path id="Path_294" data-name="Path 294" d="M502.52,778.088l2.123.006.755.937.759-3.183-3.1-.009Z" transform="translate(-476.629 -760.525)" fill="#d0fe55"/>
    <path id="Path_295" data-name="Path 295" d="M844.727,857.445l2.123.006.755.938.758-3.183-3.1-.009Z" transform="translate(-757.402 -825.635)" fill="#d0fe55"/>
    <path id="Path_296" data-name="Path 296" d="M635.384,855.729l2.778.008.268-1.124-2.778-.008Z" transform="translate(-585.641 -825.15)" fill="#d0fe55"/>
    <path id="Path_297" data-name="Path 297" d="M427.192,859.471l3.308.009,1.294-5.431-3.308-.009Z" transform="translate(-414.824 -824.686)" fill="#d0fe55"/>
    <path id="Path_298" data-name="Path 298" d="M366.386,690.533l-7.988,9.682L358.3,734.07l101.238.283,7.988-9.682.095-33.855Zm9.484,37.986-1.53,0-1.121,0-3.308-.009-1.565,0-2.563-.007,2.811-11.8,2.637.008,1.49,0,3.308.009,2.92.008,1.207,0-2.389,10.027Zm15.254-14.444,2.713-11.388,2.224.006,1.9.005,5.815.016-.759,3.184-5.815-.016-.268,1.124,5.815.016-.759,3.184-5.815-.016-.268,1.124,5.815.016-.759,3.184-5.815-.016-.674,0-3.022-.008.009.011-4.711-.013-3.151-3.915-.927,3.892-4.127-.011,2.811-11.8,2.367.007,1.76.005,3.1.009,2.857.008,1.27,0-1.63,6.843-1.9,1.769h-.3Zm17.832-7.656-.693,2.915-4.581-.013.694-2.915Zm-4.436-.785.693-2.915,4.581.013-.693,2.915ZM401.688,725.4l-.759,3.184-5.815-.016-.674,0-3.022-.009.009.012-4.711-.013-3.151-3.915-.927,3.892-4.127-.011,2.811-11.8,2.367.007,1.76,0,3.1.009,2.857.008,1.27,0-1.63,6.843-1.9,1.769h-.3l2.238,2.781,2.713-11.388,2.224.006,1.9.005,5.815.016-.759,3.184-5.815-.016-.268,1.124,5.815.016-.759,3.184-5.815-.016-.268,1.124Zm7.351,3.207,1.026-4.308-2.778-.008-1.026,4.308-4.127-.011,2.811-11.8,1.582,0,2.545.007,2.778.008,2.395.007,1.181,2.318-2.26,9.487Zm15.5.043,1.293-5.427-3.247-.009-1.964-2.439-1.872,7.859-4.127-.012,2.811-11.8h.007l0-.005,4.711.013.855,1.063,2.608.007-.594,2.495,1.15,1.428,1.185-4.973,4.127.011-2.811,11.8Zm8.876.025-.675,0-3.452-.01,2.811-11.8,2.224.006,1.9.005,5.815.016-.758,3.184-5.815-.016-.268,1.124,5.815.016-.758,3.184-5.815-.016-.268,1.124,5.815.016-.759,3.184Zm19.481.066-4.711-.013-3.151-3.914-.927,3.892-4.127-.012,2.811-11.8,2.367.007,1.761,0,3.1.009,2.857.008,1.27,0-1.63,6.842-1.9,1.769h-.3Zm5.228-31.372-92.233-.258,2.912-3.455,92.216.258Z" transform="translate(-358.303 -690.533)" fill="#d0fe55"/>
    <path id="Path_299" data-name="Path 299" d="M502.3,856.486l2.123.006.755.938.759-3.183-3.1-.009Z" transform="translate(-476.45 -824.848)" fill="#d0fe55"/>
  </g>
</svg>
