<svg id="Group_570" data-name="Group 570" xmlns="http://www.w3.org/2000/svg" width="150.482" height="34.314" viewBox="0 0 150.482 34.314">
  <g id="Group_489" data-name="Group 489" transform="translate(0)">
    <path id="Path_46" data-name="Path 46" d="M69.277,131.812c.156-.009.309-.023.462-.026q1.42-.019,2.84-.034c.05,0,.114.023.147,0,.181-.122.234.018.329.128.214.25.442.488.677.72.054.053.154.059.233.086l.03-.048a2.382,2.382,0,0,1,.157.341c.015.05-.037.12-.059.181a.535.535,0,0,0-.044.129c-.037.5-.074,1.007-.1,1.512,0,.065.057.131.076.2.025.089.038.18.058.284l-.162,0c-.006.05-.014.1-.018.147-.021.246-.027.236-.271.232-.483-.007-.967-.015-1.448.013-2.015.116-4.029.245-6.044.369l-.447.029c-.1.006-.182,0-.245.115s-.156.051-.225-.031a8.938,8.938,0,0,1-1.04-1.564c-.028-.052-.086-.119-.134-.122-.2-.013-.232-.1-.2-.292.147-.879.261-1.763.408-2.641.284-1.69.583-3.376.876-5.064a6.663,6.663,0,0,0,.111-.9c-.111.314-.228.626-.334.942q-1.3,3.868-2.6,7.739c-.133.4-.21.819-.3,1.231a.467.467,0,0,1-.473.344c-.417.021-.834.023-1.25.048-1.169.071-2.338.15-3.507.224-.3.019-.6.028-.9.04-.107,0-.22-.037-.3.094-.013.022-.166,0-.219-.045q-.456-.385-.892-.792c-.212-.2-.412-.41-.659-.658.014.158.019.264.032.37.043.338.091.675.131,1.013,0,.033-.034.075-.06.105s-.046.018-.07.022c-.852.134-1.7.292-2.557.391-.735.085-1.478.1-2.218.149a.443.443,0,0,1-.393-.191c-.33-.382-.685-.742-1.034-1.107a.585.585,0,0,0-.144-.079.191.191,0,0,1-.115-.242.6.6,0,0,0-.008-.255q-.379-2.056-.765-4.112a1.376,1.376,0,0,0-.039-.135l-.792.1c-.068.009-.135.023-.2.038a.669.669,0,0,0-.56.508c-.485,1.623-1,3.236-1.5,4.854-.094.3-.174.61-.257.917-.062.23-.15.254-.327.1a.254.254,0,0,0-.185-.042c-1.008.156-2.015.329-3.026.467a.981.981,0,0,1-.565-.16.751.751,0,0,0-.481-.142c-.21.023-.424.013-.634.038-.512.061-1.022.134-1.533.2l-.037,0a1.013,1.013,0,0,1-1.086-.4,8.526,8.526,0,0,0-1-.859.839.839,0,0,1-.163-.3c-.023-.053-.011-.122-.032-.176-.664-1.693-1.325-3.387-2-5.074-.183-.455-.418-.89-.631-1.334-.029-.06-.064-.118-.121-.222-.081.348-.149.647-.219.945-.509,2.158-1.086,4.3-1.751,6.414a3.812,3.812,0,0,1-.256.636.914.914,0,0,1-.619.5c-.751.2-1.482.471-2.228.688a3.5,3.5,0,0,1-.739.077c-.038,0-.083-.047-.119-.079-.311-.278-.624-.554-.929-.839a2.287,2.287,0,0,1-.241-.3.109.109,0,0,1-.015-.071c.075-.7.144-1.4.229-2.095.057-.464.135-.925.2-1.387.005-.034,0-.069.007-.132-.243.231-.462.449-.689.656a19.859,19.859,0,0,1-3.65,2.561c-.944.532-1.908,1.029-2.86,1.546a1.371,1.371,0,0,0-.308.238c-1.591,1.6-3.17,3.211-4.774,4.8-.446.44-.963.808-1.444,1.213-.122.1-.233.22-.346.328-.234-.19-.253-.25-.135-.5a29.621,29.621,0,0,1,1.893-3.327l.637-1.008c-.223.053-.4.092-.567.135a.219.219,0,0,1-.281-.133c-.379-.68-.769-1.354-1.16-2.027-.027-.045-.091-.068-.181-.133.073-.732.137-1.514.232-2.292.1-.809.2-1.619.349-2.421a64.5,64.5,0,0,1,1.732-7.227c.38-1.244.8-2.475,1.2-3.713.039-.121.028-.26.077-.375q.534-1.237,1.087-2.466a.552.552,0,0,1,.43-.322,13.512,13.512,0,0,0,1.344-.389,16.935,16.935,0,0,1,3.667-.856,1.847,1.847,0,0,1,.372-.029.889.889,0,0,0,.784-.336c.21-.226.445-.43.68-.655-.185.021-.368.035-.549.063a7.719,7.719,0,0,1-1.939.005.323.323,0,0,1-.24-.152.338.338,0,0,1,.091-.275c.4-.412.808-.813,1.214-1.218q1.666-1.665,3.332-3.33c.181-.18.371-.35.562-.518a.287.287,0,0,1,.151-.057c.655-.076,1.311-.154,1.967-.216a.281.281,0,0,1,.2.124c.142.219.266.449.395.676.059.1.111.209.172.311.114.192.1.271-.054.423q-1.1,1.068-2.2,2.137c-.039.038-.074.08-.135.147l.829.042c.081.151.135.27.2.378.2.313.416.618.611.935.1.163-.028.277-.132.382l-1.594,1.6c-.061.061-.117.128-.186.2.043.038.075.073.113.1a2.211,2.211,0,0,1,.768.968.438.438,0,0,0,.129.177,2.948,2.948,0,0,1,.946,1.185c.006.014.024.022.057.052.135-.534.268-1.05.394-1.567.05-.206.087-.415.127-.623a.261.261,0,0,1,.245-.238,14.892,14.892,0,0,1,4.745.146,8.85,8.85,0,0,1,3.81,1.73c.445.349.93.647,1.372,1a6.853,6.853,0,0,1,1.462,1.539,2.615,2.615,0,0,1,.339,2.271,2.83,2.83,0,0,1-1.127,1.43,5.919,5.919,0,0,1-1.793.906,1.209,1.209,0,0,0-.259.1.868.868,0,0,1-.53.127,1.586,1.586,0,0,0-.443.1,34.823,34.823,0,0,1,2.537,5.351c.029-.08.05-.127.063-.175.68-2.564,1.342-5.133,2.046-7.69.483-1.753,1.026-3.489,1.541-5.233.064-.215.119-.432.173-.649a.273.273,0,0,1,.259-.225c1.116-.156,2.231-.321,3.348-.472.2-.026.332-.074.388-.289s.16-.418.229-.631c.045-.138.123-.2.263-.164.342.093.682.193,1.023.29.083.024.167.045.252.067.209-.507.412-1.007.62-1.506.328-.788.654-1.576.99-2.36.067-.156.045-.363.243-.455.02-.009.01-.082.015-.126.039-.4.213-.536.579-.632a1.084,1.084,0,0,1,1.307.459,1.515,1.515,0,0,1-.054,1.5,7.768,7.768,0,0,0-.325.713q-.621,1.38-1.241,2.76c-.03.067-.054.137-.092.235.211.055.408.1.6.158.22.061.44.122.657.194.126.042.145.148.107.26-.117.341-.233.682-.365,1.017a.26.26,0,0,1-.182.147c-.061,0-.127-.088-.186-.142s-.116-.117-.173-.176l-.067.041,2.6,11.2.025,0c-.146-1.31-.285-2.621-.439-3.93s-.308-2.623-.487-3.931-.392-2.623-.589-3.927c.436-.062.867-.112,1.293-.187.608-.106,1.212-.228,1.816-.35a.454.454,0,0,1,.334.05c.519.283,1.043.557,1.567.83a.329.329,0,0,1,.186.4.823.823,0,0,0,.029.239q.666,3.894,1.329,7.789c.1.589.166,1.184.25,1.776.009.065.025.129.042.211a3.409,3.409,0,0,0,.43-.116.245.245,0,0,0,.112-.164c.277-1.488.524-2.982.826-4.465.454-2.234.97-4.455,1.591-6.65.109-.383.1-.379.51-.314,1.082.175,2.165.343,3.246.521a.341.341,0,0,1,.192.131c.261.355.513.717.768,1.076l.063-.012c.031-.348.066-.7.089-1.045,0-.042-.052-.094-.091-.129-.321-.3-.653-.579-.966-.882a2.146,2.146,0,0,1-.676-1.374,10.386,10.386,0,0,1,.021-1.452c.02-.56.052-1.12.041-1.68a3.808,3.808,0,0,0-.913-2.266c-.022-.029-.043-.059-.093-.127a1.392,1.392,0,0,1,.227-.017,5.245,5.245,0,0,1,2.437,1.057,2.064,2.064,0,0,1,.915,1.42q.107.673.174,1.351a1.2,1.2,0,0,0,.46.839,5.708,5.708,0,0,1,3.709-1.187,6.852,6.852,0,0,1,3.668,1.373,2.712,2.712,0,0,0,.838-1.128,4.6,4.6,0,0,0,.293-1.459c.022-.311.033-.622.051-.933a1.963,1.963,0,0,1,1.014-1.664,3.539,3.539,0,0,1,1.224-.438c.23-.04.24.033.367.2.2.271.032.5.014.751a6.257,6.257,0,0,0,.047,2.3,7.835,7.835,0,0,1,.381,1.612,5.8,5.8,0,0,1-.2,2.276,2.964,2.964,0,0,1-.941,1.324,5.1,5.1,0,0,1-1.338.878,1.973,1.973,0,0,0-.2.106.884.884,0,0,0-.521.718,8.432,8.432,0,0,1-.235,1.076,2.516,2.516,0,0,1-.156.46.25.25,0,0,1-.179.1q-.817.094-1.635.171a.246.246,0,0,0-.244.183c-.117.341-.25.676-.366,1.017-.088.257-.209.3-.422.133s-.446-.338-.69-.523c-.034.128-.061.239-.092.349-.07.246-.186.312-.412.205-.257-.122-.5-.266-.774-.411-.017.069-.042.154-.058.241-.039.211-.112.262-.325.211a1.939,1.939,0,0,1-.211-.074l-.247-.095c.014.239.03.435.036.631a1.577,1.577,0,0,1-.023.259c-.036.263-.075.526-.117.812.358-.062.68-.13,1.005-.173q1.732-.23,3.466-.442a.271.271,0,0,1,.181.071c.288.248.566.507.856.752a.251.251,0,0,1,.064.3q-.336,1.264-.667,2.529c-.016.06-.026.122-.041.183a.226.226,0,0,1-.34.135.265.265,0,0,0-.132-.032c-.777.052-1.554.1-2.33.162-.732.057-1.464.124-2.2.194a.168.168,0,0,0-.119.1c-.178.815-.35,1.631-.522,2.448A.4.4,0,0,0,69.277,131.812ZM26.349,115.394l-2.507-.3a37.475,37.475,0,0,1,3.617-3.681c-.55.046-1.089.123-1.63.176a.714.714,0,0,0-.478.241c-1.513,1.535-3.039,3.057-4.56,4.584a1.759,1.759,0,0,0-.113.147c.393,0,.743.027,1.088,0,.521-.041,1.038-.12,1.558-.182.125-.015.261-.038.324.11s-.025.248-.133.335-.2.164-.3.248a26.36,26.36,0,0,0-4.118,4.421,2.043,2.043,0,0,0-.43.9c-.114.653-.27,1.3-.415,1.977a1.329,1.329,0,0,0,.26-.045c.277-.112.553-.226.822-.354a.53.53,0,0,0,.184-.179c1.5-2.133,3.128-4.162,4.823-6.14C24.987,116.892,25.668,116.156,26.349,115.394Zm.259,4.729c-.043.365-.056.734-.134,1.088a3.648,3.648,0,0,1-1.011,1.677,13.95,13.95,0,0,1-2.864,2.24c-1.48.923-2.973,1.826-4.46,2.738-.037.022-.069.051-.118.089a.322.322,0,0,0,.064.014,14.96,14.96,0,0,1,3.116.02,4.834,4.834,0,0,1,2.115.623,1.831,1.831,0,0,1,1,1.462.158.158,0,0,0,.048.113c.313.172.629.338.96.513.078-.372.154-.712.217-1.053a.253.253,0,0,0-.054-.187,8.816,8.816,0,0,0-.728-.8,5.263,5.263,0,0,0-1.88-1.01c-.072-.024-.166-.092-.178-.154s.054-.153.106-.214c.072-.084.168-.149.246-.229.735-.755,1.481-1.5,2.2-2.271A21.46,21.46,0,0,0,27,122.764,1.862,1.862,0,0,0,26.608,120.123ZM11.251,143.9l.056.04c1.913-2.629,4.05-5.073,6.16-7.54l-.017-.072-2.655-.133-.027-.079c1.353-1.694,2.771-3.334,4.169-5a.3.3,0,0,0-.077-.016l-1.53.031a.707.707,0,0,0-.572.344q-2.166,2.86-4.352,5.705c-.028.037-.051.078-.079.123a4.062,4.062,0,0,0,1.479-.048c.408-.086.814-.18,1.224-.257a.292.292,0,0,1,.245.062c.045.066.022.183.015.276,0,.039-.039.076-.062.113-.464.723-.939,1.44-1.39,2.171-.837,1.356-1.662,2.721-2.49,4.082C11.311,143.765,11.283,143.832,11.251,143.9Zm43.613-24.555c0,.04,0,.064.007.088.229,1.331.49,2.657.681,3.993.335,2.342.627,4.69.936,7.035.012.091.028.161.142.146l1.47-.187c-.013-.162-.015-.292-.035-.42-.264-1.729-.523-3.459-.8-5.186-.243-1.512-.507-3.02-.765-4.529a.2.2,0,0,0-.086-.126C55.9,119.882,55.39,119.616,54.863,119.341ZM38.169,121.7a8.582,8.582,0,0,1,.44.888,2.192,2.192,0,0,1-.435,2.521,5.139,5.139,0,0,1-.495.427,10.878,10.878,0,0,1-4.177,1.781c-.045.01-.089.025-.146.04a.893.893,0,0,0,.052.075,20.142,20.142,0,0,1,1.812,2.421.746.746,0,0,0,.228.212c.547.345,1.1.684,1.65,1.024.038.024.08.042.138.071a.592.592,0,0,0-.02-.077,25.9,25.9,0,0,0-1.6-3.144.386.386,0,0,1-.059-.115c-.022-.1-.022-.191.134-.165a.429.429,0,0,0,.2-.034c.441-.153.874-.335,1.322-.458a4.707,4.707,0,0,0,1.481-.733,2.352,2.352,0,0,0,1.15-2.379,2.644,2.644,0,0,0-.5-1.115A7.278,7.278,0,0,0,38.169,121.7Zm27.047-2.111c-.019.064-.027.09-.035.118q-.825,3.027-1.652,6.054c-.213.775-.44,1.545-.655,2.319-.016.06-.011.173.024.193.293.168.6.32.9.481.03-.081.052-.139.072-.2q.767-2.155,1.533-4.311a4.428,4.428,0,0,0,.218-.673c.16-.882.3-1.768.444-2.654A.359.359,0,0,0,66,120.69c-.163-.235-.342-.459-.512-.691C65.4,119.876,65.321,119.748,65.216,119.593Zm-12.94,9.754c-.109-.468-.209-.891-.305-1.315q-.885-3.9-1.768-7.8c-.066-.293-.117-.342-.439-.378-.185.451-.377.9-.552,1.36a.589.589,0,0,0-.012.338c.134.506.3,1,.425,1.51.431,1.8.848,3.612,1.273,5.418a.273.273,0,0,0,.1.166C51.407,128.882,51.824,129.1,52.276,129.348ZM25.654,129.1l1.295-5.659-3.766,3.987A5.31,5.31,0,0,1,25.654,129.1ZM78.595,112h-.064c-.012.035-.028.068-.037.1a8.244,8.244,0,0,0-.208,2.355c.015.509.109,1.015.131,1.524a2.826,2.826,0,0,1-.141,1.288,3.614,3.614,0,0,1-1.81,1.784,3.354,3.354,0,0,1-.557.137c-.187.054-.371.124-.554.192a.539.539,0,0,0-.162.09c-.064.054-.148.113-.17.185q-.179.609-.328,1.226a.274.274,0,0,0,.066.221c.248.236.508.46.765.686a1.634,1.634,0,0,0,.136.1c.105-.494.2-.962.305-1.429a.438.438,0,0,1,.09-.234,4.44,4.44,0,0,1,.77-.58,6.174,6.174,0,0,0,1.274-.905,2.46,2.46,0,0,0,.739-1.062,5.73,5.73,0,0,0,.189-2.31,10.534,10.534,0,0,0-.334-1.375,4.833,4.833,0,0,1-.15-.878C78.532,112.74,78.576,112.367,78.595,112ZM20.136,123.479l.053.06q.914-.593,1.827-1.187a.175.175,0,0,0,.076-.1,1.7,1.7,0,0,1,.43-.811c.955-1.141,1.917-2.277,2.9-3.392.49-.554,1.038-1.057,1.557-1.586.041-.042.1-.129.081-.159-.134-.249-.283-.49-.445-.76A92.9,92.9,0,0,0,20.136,123.479Zm25.517,3.063,1.021-.171,2.8-6.644-.862-.289Zm2.694-7.2c-.154-.052-.3-.088-.433-.149s-.2-.028-.263.112c-.488,1.077-.989,2.149-1.48,3.226q-.927,2.03-1.846,4.064a1.309,1.309,0,0,0-.043.134c.3-.043.57-.1.847-.119a.267.267,0,0,0,.251-.2q1.26-3.018,2.528-6.033C48.05,120.037,48.194,119.7,48.347,119.339ZM34.776,122.79a.567.567,0,0,0-.076-.607,1.345,1.345,0,0,0-.895-.532,12.785,12.785,0,0,0-1.655-.122,10.879,10.879,0,0,0-1.275.151.272.272,0,0,0-.254.231c-.14.574-.291,1.145-.424,1.721-.059.258-.084.523-.129.822.277-.029.516-.057.756-.076.123-.01.155-.066.177-.186.088-.483.186-.965.3-1.442a.375.375,0,0,1,.216-.241,6.934,6.934,0,0,1,2.635-.1,1.477,1.477,0,0,1,.448.173C34.667,122.615,34.7,122.7,34.776,122.79Zm38.975,4.723-.032.055c-.121.027-.241.061-.363.08q-1.875.277-3.751.55c-.322.047-.647.084-.97.126a4.336,4.336,0,0,0,.659.4c.12.06.229.217.394.084.008-.007.034.009.052.012a1.042,1.042,0,0,0,.26.046c1.123-.087,2.246-.186,3.37-.268.391-.029.786-.019,1.179-.027l.027-.068Zm-22.771,1.358c.018.1.031.175.046.252.12.616.282,1.228.349,1.85a1.157,1.157,0,0,0,.691,1.019c.308.151.591.355.9.542a.331.331,0,0,0,.009-.077q-.319-1.42-.642-2.839a.207.207,0,0,0-.09-.128C51.832,129.284,51.419,129.085,50.981,128.871Zm-30.524,2.4c.038-.028.064-.044.087-.064.432-.375.394-.663-.115-.911a3.365,3.365,0,0,0-1.234-.258,7.506,7.506,0,0,0-3.263.3c-.065.024-.128.052-.218.089.242.152.46.273.658.419a.41.41,0,0,0,.472.069,3.934,3.934,0,0,1,1.525-.189,5.176,5.176,0,0,1,1.635.244C20.191,131.031,20.388,131.042,20.457,131.276Zm-4.387,4.709a3.189,3.189,0,0,1,.235-.365q1.7-2,3.405-3.991c.076-.089.149-.18.237-.287-.122-.038-.22-.07-.319-.1s-.2-.054-.3-.081c-1.382,1.548-2.675,3.154-3.991,4.741l.034.048Zm18.579-13.07a3.158,3.158,0,0,0-.581-.205,6.446,6.446,0,0,0-2.358.073.263.263,0,0,0-.17.154c-.089.35-.16.7-.234,1.057-.019.093-.025.188-.038.289A8.03,8.03,0,0,0,34.648,122.914Zm-10.331,7.472a2.883,2.883,0,0,1-1.142,2.057l1.419.81a1.763,1.763,0,0,0,.317-.482c.142-.587.242-1.183.354-1.777.008-.04-.006-.113-.033-.128C24.94,130.706,24.643,130.555,24.318,130.386Zm48.176-12.227.047.013a2.4,2.4,0,0,0,.411,1.556c.124.209.285.249.46.073a1.074,1.074,0,0,0,.318-.487,4.631,4.631,0,0,0,.1-1.216,1.571,1.571,0,0,0-.473-1.066c-.222-.2-.478-.166-.583.114C72.654,117.471,72.586,117.819,72.494,118.158Zm-54.7,2.9c-.062.164-.123.3-.167.441a21.263,21.263,0,0,0-.541,3.039c-.016.1.036.18.153.145.22-.065.437-.139.652-.219.032-.012.056-.075.066-.118.1-.442.19-.887.289-1.329.07-.315.153-.628.219-.944a.442.442,0,0,0-.07-.455C18.206,121.434,18.014,121.259,17.794,121.054Zm13.1,9.257c.105-.484.212-.943.3-1.406a.418.418,0,0,0-.071-.258c-.168-.288-.348-.569-.527-.86-.158.029-.33.054-.5.094a.2.2,0,0,0-.137.1q-.223.741-.425,1.488a.194.194,0,0,0,.068.17C30.018,129.863,30.44,130.076,30.894,130.311Zm37.259,3.765-.01.055a.383.383,0,0,0,.055.046q1.034.6,2.07,1.188a.386.386,0,0,0,.194.047c.559-.018,1.118-.041,1.678-.064a.525.525,0,0,0,.1-.03c-.063-.04-.1-.068-.145-.092-.557-.327-1.119-.647-1.67-.985a1.274,1.274,0,0,0-.768-.222C69.156,134.051,68.654,134.059,68.153,134.076Zm1.992-15.456a6.811,6.811,0,0,0-.056-.745.668.668,0,0,0-.186-.392.5.5,0,0,0-.841.228,2.618,2.618,0,0,0-.037,2.119c.081.19.146.215.347.163a.726.726,0,0,0,.539-.471C70.02,119.2,70.083,118.866,70.145,118.62ZM13,142.176l.057.051c.088-.087.178-.172.265-.26.873-.879,1.75-1.754,2.616-2.639.675-.69,1.337-1.392,2-2.091.045-.048.1-.14.084-.183-.075-.179-.176-.347-.277-.538Zm17.406-9.986c.143-.559.281-1.088.408-1.62.009-.039-.052-.117-.1-.144-.234-.129-.474-.248-.713-.37-.18-.091-.361-.18-.56-.279-.143.535-.282,1.045-.412,1.557a.168.168,0,0,0,.067.144C29.522,131.714,29.95,131.943,30.408,132.19ZM24.5,114.807l.044.068c.171.019.343.049.514.051a.4.4,0,0,0,.261-.077q1.26-1.21,2.506-2.437a.177.177,0,0,0,.047-.152c-.08-.181-.176-.356-.294-.587Zm-2.8,18.757c.5.287,1,.574,1.5.857a.143.143,0,0,0,.131-.011c.368-.322.732-.649,1.118-.993-.494-.274-.948-.528-1.405-.775a.154.154,0,0,0-.128.026C22.511,132.96,22.112,133.256,21.695,133.564Zm51.362-9.98a.35.35,0,0,0,.031-.053c.144-.371.28-.745.435-1.111a.366.366,0,0,1,.206-.181,1.837,1.837,0,0,1,.33-.011c.449-.049.9-.1,1.39-.163-.31-.277-.59-.529-.873-.777a.141.141,0,0,0-.1-.015c-.32.046-.639.115-.96.136-.3.02-.5.1-.515.434a.581.581,0,0,1-.049.141c-.125.378-.253.754-.368,1.135a.213.213,0,0,0,.054.185C72.767,123.408,72.914,123.491,73.057,123.585ZM69.2,131c.116-.6.23-1.18.335-1.758a.182.182,0,0,0-.071-.151c-.353-.206-.711-.4-1.074-.605a.415.415,0,0,0-.039.077c-.1.448-.217.894-.3,1.346-.027.148.114.3.061.467,0,.006.025.025.041.034Zm5.38-5.771a.369.369,0,0,0-.055.08q-.325.974-.644,1.949a.139.139,0,0,0,.027.116c.272.28.549.556.824.832-.021.017-.008-.009,0-.036.2-.714.395-1.428.587-2.144a.173.173,0,0,0-.035-.144C75.057,125.666,74.822,125.453,74.583,125.233Zm-11.589,5.915c.241-.711.477-1.4.706-2.089a.151.151,0,0,0-.045-.136c-.286-.161-.577-.312-.881-.473-.215.718-.425,1.414-.629,2.112a.142.142,0,0,0,.061.114C62.459,130.832,62.716,130.983,62.993,131.147ZM18.1,135.223c.009.022.009.03.013.032q1.021.6,2.045,1.194a.161.161,0,0,0,.135.01c.306-.176.608-.358.911-.539-.017-.027-.02-.041-.029-.046-.654-.346-1.308-.692-1.964-1.034a.212.212,0,0,0-.155-.006C18.739,134.96,18.424,135.091,18.1,135.223Zm50.693-9.518c.284-.038.557-.077.83-.111.1-.013.144-.058.153-.167.049-.551.109-1.1.161-1.653.008-.091.028-.234-.02-.268-.226-.161-.2-.418-.277-.633-.06-.162-.1-.331-.156-.509Zm-22.208-7.133c.353.056.7.087,1.033.172.317.081.619.221.929.329q1.073.377,2.147.748c.045.016.091.028.146.045l.223-.552-4.3-1.231Zm-31.834,14.9.063.023,1.688-2.267c-.318-.206-.618-.4-.921-.6-.21-.133-.247-.113-.3.138-.1.469-.2.937-.294,1.407C14.9,132.6,14.83,133.036,14.752,133.468Zm5.334,3.12c-.752-.419-1.472-.821-2.193-1.221a.173.173,0,0,0-.122-.023c-.291.1-.579.212-.879.323a1,1,0,0,0,.675.278.241.241,0,0,1,.263.166.468.468,0,0,0,.2.213c.386.226.777.443,1.17.657a.209.209,0,0,0,.167.01C19.6,136.867,19.829,136.733,20.085,136.588Zm31.75-3.089c.079.433.145.83.227,1.224a.333.333,0,0,0,.146.177c.282.182.568.357.857.529.18.107.366.2.6.329a2.569,2.569,0,0,0-.091-.8,2.252,2.252,0,0,1-.159-.575.157.157,0,0,0-.069-.1C52.853,134.03,52.364,133.775,51.835,133.5Zm-7.917-3.39c.32.155.642.315.97.464a.548.548,0,0,0,.3.067c.43-.086.855-.193,1.3-.3-.072-.225-.16-.489-.238-.757-.033-.115-.089-.139-.2-.116-.634.128-1.269.252-1.905.368A.238.238,0,0,0,43.919,130.11ZM65.533,112.3a.916.916,0,0,0,.051.082,3.764,3.764,0,0,1,.882,2.176c.031.378.039.758.083,1.134a.879.879,0,0,0,.74.737c.131.021.219,0,.258-.148a.864.864,0,0,0-.076-.1,1.514,1.514,0,0,1-.47-1.025c-.029-.383-.1-.763-.139-1.147A2.143,2.143,0,0,0,65.533,112.3ZM51.555,131.881c.08.459.153.887.231,1.313a.164.164,0,0,0,.073.1c.492.275.985.546,1.521.841a8.016,8.016,0,0,1-.2-.859.889.889,0,0,0-.545-.745C52.27,132.349,51.934,132.113,51.555,131.881ZM22.164,135.3c-.015-.026-.019-.04-.028-.045-.568-.321-1.137-.642-1.707-.96a.177.177,0,0,0-.138-.008c-.288.13-.573.267-.863.4.015.019.022.039.037.046q.938.5,1.879,1a.165.165,0,0,0,.135.008C21.71,135.6,21.936,135.446,22.164,135.3ZM35.609,130.4l-.023.019c.247.429.491.86.744,1.286a.818.818,0,0,0,.219.245c.425.3.858.595,1.289.889a1.26,1.26,0,0,0,.139.066c-.2-.475-.373-.911-.557-1.345a.286.286,0,0,0-.11-.12Q36.461,130.921,35.609,130.4Zm37.791,4.96a.416.416,0,0,0-.043-.08q-.6-.618-1.193-1.233a.2.2,0,0,0-.126-.067c-.482.013-.964.033-1.446.052a.352.352,0,0,0,.14.132c.532.32,1.084.613,1.59.97A1.872,1.872,0,0,0,73.4,135.365Zm-52.772-1.229c.571.328,1.113.641,1.657.952.034.019.095.038.119.021.233-.163.462-.334.708-.514-.544-.3-1.047-.587-1.553-.864a.21.21,0,0,0-.167-.012C21.144,133.845,20.9,133.983,20.628,134.135ZM70.99,120.582c.176.153.365.314.55.479a.277.277,0,0,0,.357.06.444.444,0,0,0,.15-.287c.008-.073-.068-.17-.131-.232-.2-.207-.429-.4-.629-.607-.274-.29-.455-.283-.689.039-.186.256-.389.5-.57.759a.5.5,0,0,0-.085.293.258.258,0,0,0,.141.191.3.3,0,0,0,.253-.046C70.56,121.028,70.765,120.807,70.99,120.582ZM29.5,135.453c.09-.322.178-.619.25-.919.009-.038-.053-.114-.1-.14-.24-.13-.485-.249-.729-.373l-.507-.26c-.073.329-.143.631-.2.935a.17.17,0,0,0,.067.142C28.679,135.044,29.079,135.241,29.5,135.453Zm-.791-2.862c-.033.123-.064.228-.09.335-.049.205-.188.455-.117.605s.348.23.538.332c.256.136.515.266.789.406.084-.3.166-.572.236-.848a.153.153,0,0,0-.06-.131C29.586,133.057,29.158,132.83,28.713,132.591Zm7.934-.355-.017.028q.379.83.76,1.658a.242.242,0,0,0,.074.1c.23.143.463.281.7.426a1.187,1.187,0,0,0,.026-.992.885.885,0,0,0-.323-.387c-.185-.113-.361-.243-.54-.366Zm7.192-1.955-.4,1.123,1.105.5c.1-.359.2-.7.286-1.039a.168.168,0,0,0-.077-.138C44.463,130.575,44.17,130.439,43.839,130.281ZM43,132.615l1.143.515c.109-.339.211-.645.3-.954a.164.164,0,0,0-.048-.147c-.331-.155-.667-.3-1.019-.454Zm21.721,1.812c.086.056.129.088.176.113.607.329,1.225.641,1.819.992.329.195.641.07.966.063a.083.083,0,0,0-.037-.056q-.97-.578-1.942-1.155a.258.258,0,0,0-.139-.045C65.295,134.362,65.03,134.394,64.717,134.427Zm3.323-3.838-.293,1.4c.416-.047.8-.084,1.176-.138.1-.014.218-.61.137-.659C68.733,130.992,68.4,130.8,68.04,130.588Zm-2.1,3.724c.073.047.112.075.154.1.556.33,1.127.637,1.662,1,.358.243.7.113,1.058.093a.241.241,0,0,0-.085-.079c-.552-.324-1.12-.624-1.651-.979A1.4,1.4,0,0,0,65.944,134.313Zm-21.859-1-1.153-.517-.282.814,1.143.609Zm-13.933-.179c.06-.221.106-.413.165-.6.033-.106,0-.155-.1-.2-.251-.123-.5-.255-.743-.385-.173-.091-.344-.184-.533-.284-.057.224-.111.42-.153.62a.154.154,0,0,0,.052.133C29.269,132.65,29.7,132.882,30.151,133.13Zm38.532-13.274a2.8,2.8,0,0,1-.086-1.66,1.347,1.347,0,0,1,.749-1.133.768.768,0,0,0-1.009.474,3.029,3.029,0,0,0-.194,1.556A.986.986,0,0,0,68.683,119.856Zm4,13.549a4.161,4.161,0,0,0-.209.466.272.272,0,0,0,.052.223c.222.243.46.471.689.707.127.131.248.267.372.4l.065-.013c.017-.338.038-.677.047-1.015a.226.226,0,0,0-.067-.171C73.329,133.8,73.017,133.612,72.684,133.405Zm.012-16.661c-.07,0-.162.013-.254.012a.385.385,0,0,0-.4.252,2.443,2.443,0,0,0-.141.479,2.678,2.678,0,0,0,.306,2,.982.982,0,0,0,.463.381A2.873,2.873,0,0,1,72.7,116.744ZM51.6,114.429a5.4,5.4,0,0,0-.016-.606.576.576,0,0,0-.433-.51.936.936,0,0,0-.888.114.306.306,0,0,0,.091.52c.212.088.423.178.636.262C51.181,114.282,51.373,114.347,51.6,114.429ZM28.145,134.97c-.044.251-.087.464-.115.679a.186.186,0,0,0,.058.156c.369.188.744.365,1.138.554l.231-.734Zm41.764.435c-.053-.031-.1-.064-.158-.094-.573-.328-1.163-.629-1.712-.993a1.4,1.4,0,0,0-1.014-.121c.071.048.107.077.147.1.575.336,1.167.648,1.72,1.017A1.274,1.274,0,0,0,69.909,135.405Zm-8.895-1.654c.1.465.485.644.835.879.111-.349.22-.684.323-1.021a.124.124,0,0,0-.032-.109c-.235-.166-.474-.325-.731-.5l-.2.726Zm1.054-2.934c-.09.3-.174.561-.249.829a.147.147,0,0,0,.038.127c.241.183.487.359.751.551.107-.323.206-.616.3-.912a.124.124,0,0,0-.042-.107C62.608,131.142,62.348,130.987,62.068,130.817Zm-3.25,3.495c.09.062.129.091.17.118.508.325,1.029.633,1.52.982.276.2.548.079.824.1-.573-.422-1.15-.822-1.729-1.22a.207.207,0,0,0-.12-.04C59.28,134.265,59.078,134.287,58.818,134.312Zm-14.469-8.786c.025-.015.042-.019.046-.028q.491-1.069.979-2.139a.174.174,0,0,0,.006-.138c-.124-.206-.257-.407-.409-.643Zm5.183,9.84-.01.038c.054.028.107.058.161.085.49.244.992.467,1.467.737.306.174.573.037.863,0-.535-.306-1.075-.587-1.616-.865a.3.3,0,0,0-.143-.034C50.012,135.335,49.772,135.351,49.531,135.365Zm23.415-3.093c-.053.194-.11.395-.162.6-.073.286-.071.286.174.437.169.1.336.211.506.314.081.05.165.095.262.15.023-.241.047-.45.062-.661a.18.18,0,0,0-.038-.132C73.489,132.743,73.223,132.515,72.946,132.273ZM54.9,134.734c.019.028.025.047.039.056q.719.486,1.44.97a.218.218,0,0,0,.119.044c.208-.01.415-.029.67-.048-.089-.061-.137-.1-.187-.128a13.021,13.021,0,0,1-1.149-.763A1.018,1.018,0,0,0,54.9,134.734Zm6.832-2.792c-.082.268-.16.516-.231.766a.125.125,0,0,0,.035.11c.239.165.483.323.745.5.085-.25.165-.477.235-.707a.145.145,0,0,0-.046-.124C62.228,132.3,61.987,132.131,61.727,131.942Zm-18.4,3.736c.032-.1.064-.183.091-.27.1-.307.1-.309-.187-.479s-.57-.338-.872-.516l-.184.574a.871.871,0,0,0,.081.063Zm-14.666,1.654c-.27-.378-.7-.453-1.058-.652l-.866.208c.352.189.712.3,1.037.477A1.038,1.038,0,0,0,28.665,137.331Zm13.482-2.152c-.157.337-.15.523.081.691.273.2.574.36.883.549.055-.18.106-.327.141-.477a.154.154,0,0,0-.053-.131C42.855,135.6,42.506,135.394,42.147,135.18Zm-1.736.887-.012.041c.05.033.1.069.151.1q.567.32,1.135.638a.91.91,0,0,0,.792-.012c-.463-.268-.917-.532-1.375-.792a.33.33,0,0,0-.178-.033C40.753,136.02,40.582,136.045,40.411,136.066Zm19.164-.5c-.574-.359-1.113-.681-1.633-1.03a.848.848,0,0,0-.694-.044c.51.333,1.034.633,1.536.964A.963.963,0,0,0,59.574,135.567Zm.3-1.353-.006.047,1.62,1.124A10.518,10.518,0,0,0,61,134.342a.327.327,0,0,0-.224-.163C60.475,134.173,60.173,134.2,59.871,134.214Zm-17.277-.447c-.047.13-.079.243-.127.347s-.02.158.074.21c.212.118.419.244.628.367l.4.241c.053-.17.1-.31.138-.454a.149.149,0,0,0-.049-.13C43.314,134.154,42.963,133.967,42.593,133.767ZM70.48,121.841c-.022.025-.035.034-.036.043-.088.456-.177.912-.262,1.368a.352.352,0,0,0,.006.14c.055.23.261.246.451.319.069-.3.137-.593.2-.884a.234.234,0,0,0-.017-.126C70.711,122.418,70.6,122.137,70.48,121.841ZM35.763,136.079c.065.043.108.076.155.1.518.294,1.04.582,1.553.884.216.127.414,0,.622.013-.551-.328-1.11-.624-1.654-.946A.685.685,0,0,0,35.763,136.079Zm-23.586,1.668a1.312,1.312,0,0,0,.117.072q.691.345,1.383.688c.325.161.326.159.484-.168a.091.091,0,0,0,0-.026A2.863,2.863,0,0,0,12.177,137.747Zm38.611-2.4c.05.028.1.057.151.084a11.338,11.338,0,0,1,1.08.589,1.129,1.129,0,0,0,.975.057c-.087-.049-.137-.081-.191-.107-.345-.172-.7-.325-1.032-.52A1.589,1.589,0,0,0,50.788,135.347Zm13.675-.853a1.077,1.077,0,0,0,.462.624c.335.162.655.354.982.532a.853.853,0,0,0,.677,0Zm-6.427-.09.167.106c.511.318,1.029.626,1.529.959.2.134.388.083.631.067-.089-.061-.139-.1-.19-.13-.453-.294-.922-.566-1.354-.888A.847.847,0,0,0,58.036,134.4Zm-2.237.228c.075.057.12.1.169.128.427.279.865.543,1.279.839a.843.843,0,0,0,.7.082c-.069-.05-.111-.084-.155-.113-.438-.286-.885-.557-1.309-.861A.8.8,0,0,0,55.8,134.632ZM39.49,136.251c.437.231.849.423,1.231.661a1.067,1.067,0,0,0,.849.07c-.078-.049-.126-.081-.177-.11a9.72,9.72,0,0,1-.933-.543A.949.949,0,0,0,39.49,136.251Zm16.6-.407.007-.055c-.453-.306-.911-.606-1.357-.922a.591.591,0,0,0-.528-.065c.37.335.714.648,1.06.959a.179.179,0,0,0,.1.044C55.611,135.821,55.85,135.831,56.09,135.844Zm-44.615,2.035,2.264,1.139.138-.216-.213-.11c-.593-.3-1.19-.592-1.776-.9A.28.28,0,0,0,11.475,137.878Zm16.327-.3,0-.045c-.357-.144-.725-.264-1.067-.438-.319-.162-.578-.013-.861.077.426.2.854.379,1.283.556a.15.15,0,0,0,.09.006C27.436,137.679,27.618,137.626,27.8,137.574Zm23.392-21.99.225-.14c-.06-.062-.108-.149-.181-.181-.353-.155-.712-.3-1.071-.438a.852.852,0,0,0-.3-.084c-.077,0-.153.071-.229.11.044.067.073.164.136.2a5.85,5.85,0,0,0,.634.274C50.653,115.413,50.909,115.49,51.194,115.584Zm-.961,2.014.188-.088a1.108,1.108,0,0,0-.094-.181.29.29,0,0,0-.122-.083c-.369-.145-.738-.29-1.11-.426a.308.308,0,0,0-.216,0,.256.256,0,0,0-.141.166c0,.054.075.136.136.163a4.5,4.5,0,0,0,.441.146ZM36.488,135.927l-.008.051,2.016,1.107.032-.054a3.55,3.55,0,0,0-.516-.312c-.147-.059-.207-.133-.176-.275a.274.274,0,0,0-.2-.352c-.12-.047-.228-.127-.345-.185a.4.4,0,0,0-.192-.055C36.893,135.87,36.691,135.9,36.488,135.927Zm35.377-12.255a1.671,1.671,0,0,0-.07-1.534l-.44,1.267Zm-22.424-7.917c-.054.041-.178.087-.2.164-.045.139.09.178.2.214.2.067.4.141.6.208s.388.133.587.18c.055.013.127-.043.191-.068-.026-.058-.037-.14-.082-.171A3.87,3.87,0,0,0,49.441,115.755ZM35.1,136.23c.583.327,1.145.656,1.723.956.114.059.286.007.431.006-.5-.331-1-.605-1.479-.915A.6.6,0,0,0,35.1,136.23Zm21.475-1.671c.072.05.12.086.171.118.432.282.877.546,1.293.85a.9.9,0,0,0,.693.108c-.087-.06-.133-.1-.182-.126-.492-.3-.989-.6-1.474-.913A.564.564,0,0,0,56.576,134.559Zm-28.555,1.415a3.035,3.035,0,0,0,.914,1.156c.065-.164.137-.327.191-.495a.16.16,0,0,0-.051-.146C28.735,136.316,28.389,136.152,28.021,135.974Zm-14.564,3.473-1.673-.8a1.009,1.009,0,0,0,.542.613c.26.1.507.234.76.352S13.325,139.72,13.458,139.447Zm36.914-3.042c-.087-.046-.134-.074-.183-.1-.522-.259-1.049-.51-1.566-.781a.771.771,0,0,0-.565-.03.84.84,0,0,0,.2.131c.5.237,1,.462,1.5.713A.868.868,0,0,0,50.372,136.406ZM46,122.08l-1.011.152.542.809Zm-27.381-.589.643-.839-.022-.042-1.21.345Zm8.333,16.315c-.387-.165-.761-.3-1.111-.48a.874.874,0,0,0-.726.016c.422.177.811.321,1.182.5A.614.614,0,0,0,26.948,137.806Zm24.107-1.453a.362.362,0,0,0-.065-.058c-.594-.287-1.186-.577-1.786-.852a1.219,1.219,0,0,0-.369-.044l-.012.056c.059.031.118.062.178.092.5.25,1.007.492,1.5.755A.741.741,0,0,0,51.055,136.353Zm-39.626,1.709-.067.061a1.553,1.553,0,0,0,.28.237c.6.306,1.212.6,1.822.893.042.02.112-.023.17-.037l-.016-.052Zm42.184-2.031c-.466-.287-.886-.534-1.294-.8-.193-.127-.349-.043-.572.008.536.275,1.021.53,1.512.77A1.087,1.087,0,0,0,53.613,136.031Zm-12.263-.05,1.6.935.032-.045a.366.366,0,0,0-.048-.069,5.717,5.717,0,0,1-.562-.514.872.872,0,0,0-.918-.331ZM26.322,138l-1.416-.591a4.41,4.41,0,0,0,.443.435c.408.374.407.375.931.19A.356.356,0,0,0,26.322,138Zm-11.813-.187c-.338-.347-.7-.148-1.058-.063l.831.412Zm3.69-.259.035.043.875-.462-.939-.5a3.055,3.055,0,0,0,.278.558c.076.128.068.219-.095.266A.629.629,0,0,0,18.2,137.559Zm22.509-.462c-.023-.023-.033-.039-.047-.047-.444-.247-.887-.5-1.335-.736a.538.538,0,0,0-.21-.014l-.011.055c.053.039.1.082.16.115.318.193.64.38.955.577A.479.479,0,0,0,40.708,137.1Zm-4.23.164.009-.047-1.272-.705c.216.262.442.506.67.747a.122.122,0,0,0,.08.037C36.136,137.285,36.307,137.272,36.478,137.261Zm1.47-1.915.038,0c.046-.21.095-.421.137-.632.006-.031,0-.086-.021-.1-.168-.105-.341-.2-.55-.324Zm10.541.573c.349.548.594.659,1.182.529Zm-8.78,1.414.012-.056c-.392-.237-.783-.476-1.178-.707-.039-.023-.1,0-.2,0,.383.266.714.508,1.059.728C39.48,137.344,39.605,137.321,39.708,137.331Zm.408-.135c0-.01-.005-.026-.013-.031-.389-.246-.777-.492-1.17-.732-.046-.028-.117-.015-.219-.024A4.192,4.192,0,0,0,40.116,137.2Zm-27.038,2.6-.86-.376.3.53Zm51.892-4.466c.251.441.382.509.714.388Zm-3.56-.751.29.564C61.84,134.84,61.822,134.8,61.411,134.581Zm-23.879,1.208-.022.052.342.194.039-.168Zm-9.365.977.022-.035-.18-.237-.118.142Z" transform="translate(-10.489 -110.583)" fill="#d0fe55"/>
    <g id="Group_363" data-name="Group 363" transform="translate(70.806 6.316)">
      <path id="Path_47" data-name="Path 47" d="M395.674,144.68c-.41-.049-.79-.069-1.158-.143a.783.783,0,0,1-.706-1.1,6.114,6.114,0,0,1,.366-.874,6.117,6.117,0,0,0,.271-.659,2.111,2.111,0,0,1,.923-1.258,9.874,9.874,0,0,0,.386.939,2.17,2.17,0,0,0,.4.422,3.179,3.179,0,0,0,.324.331.756.756,0,0,0,.277.09.337.337,0,0,0,.461-.264c.028-.091.147-.165.24-.223a8.639,8.639,0,0,1,.778-.451.381.381,0,0,1,.321.016.294.294,0,0,1,.008.284c-.324.294-.262.6-.125.962.083.219.181.28.387.255.674-.082,1.357-.123,2.022-.251a11.894,11.894,0,0,0,3.015-.978,3.3,3.3,0,0,0,.357-.209,1.452,1.452,0,0,0,.056-2.5,2.725,2.725,0,0,0-1.415-.517c-1.228-.11-2.458-.2-3.685-.313a5.193,5.193,0,0,1-1.063-.2,1.365,1.365,0,0,1-1.026-1.839c.14-.518.4-1,.588-1.51a5.249,5.249,0,0,0,.212-.706,4.059,4.059,0,0,0,.042-.489,1.663,1.663,0,0,1,.653-1.243,3.56,3.56,0,0,0,1.158-1.587,1.869,1.869,0,0,0,.087-.426c.027-.173.037-.385.266-.374s.208.226.2.4c-.008.249-.017.5-.015.747a.426.426,0,0,0,.124.268,4.806,4.806,0,0,0,.237-.423,1.665,1.665,0,0,1,1.371-1.18,1.353,1.353,0,0,0,1.039-.78c.061-.093.209-.225.268-.2a.489.489,0,0,1,.245.281,2.412,2.412,0,0,1,.1.558c.014.148.069.21.225.21.224,0,.447.03.671.035a2.521,2.521,0,0,1,1.031.288,6.294,6.294,0,0,0,1.2.358c.315.077.639.112.957.177.2.041.4.12.539-.133a.279.279,0,0,1,.263-.081.34.34,0,0,1,.173.249c.005.379-.032.758-.029,1.136a.856.856,0,0,0,.119.392c.11.194.265.363.372.558.071.128.126.21.29.166a.211.211,0,0,1,.293.2c.02.118.067.232.091.349a.743.743,0,0,0,.465.579.238.238,0,0,1,.175.313c-.019.093-.026.188-.046.281a.709.709,0,0,1-.8.609,1.174,1.174,0,0,0-.944.22.84.84,0,0,1-.46.14c-.435.031-.572-.1-.6-.515-.368-.128-.727-.261-1.092-.374a.418.418,0,0,1-.349-.362.29.29,0,0,0-.09-.173,2.949,2.949,0,0,1-.4-.3,1.134,1.134,0,0,0-1.021-.39,3.131,3.131,0,0,0-1.984.9.845.845,0,0,0-.219.4c-.083.368-.132.745-.2,1.146a10.693,10.693,0,0,0,2.347.687c.764.071,1.53.117,2.294.191.465.045.561.27.311.65l1.8,1.541.137.118a1.166,1.166,0,0,1,.423,1.634c-.26.649-.571,1.275-.808,1.939a2.979,2.979,0,0,1-1.3,1.4c-.525.345-1.046.7-1.552,1.067a3.609,3.609,0,0,1-1.294.622,2.5,2.5,0,0,0-.477.191c-.389.186-.768.392-1.16.569a2.56,2.56,0,0,1-2.339-.093,1.437,1.437,0,0,0-1.133-.034,2.824,2.824,0,0,1-1.172.1c-.78-.079-1.565-.121-2.341-.226-.5-.067-.626-.286-.549-.779C395.524,145.214,395.605,144.959,395.674,144.68Z" transform="translate(-330.83 -128.683)" fill="#d0fe55"/>
      <path id="Path_48" data-name="Path 48" d="M227.3,138.121c-.373-.128-.737-.248-1.1-.379-.093-.034-.241-.088-.252-.152-.07-.414-.478-.515-.7-.783a1,1,0,0,0-.906-.278,3.154,3.154,0,0,0-1.942.871.992.992,0,0,0-.256.46c-.085.358-.126.726-.189,1.113a10.111,10.111,0,0,0,2.613.707c.671.031,1.341.1,2.01.164.482.048.573.256.329.655q.973.834,1.94,1.664a1.138,1.138,0,0,1,.428,1.588c-.267.683-.591,1.342-.848,2.033a2.917,2.917,0,0,1-1.214,1.308c-.57.386-1.126.792-1.707,1.161a8.417,8.417,0,0,1-1.009.508c-.287.132-.589.235-.878.363-.369.165-.727.358-1.1.513a2.379,2.379,0,0,1-2.029-.085,1.665,1.665,0,0,0-1.3-.1,2.783,2.783,0,0,1-1.147.1c-.78-.078-1.565-.119-2.341-.224-.522-.071-.647-.29-.559-.818.042-.252.121-.5.192-.777-.281-.021-.537-.036-.792-.059-1.068-.094-1.39-.646-.943-1.625.075-.164.184-.312.262-.474a3.162,3.162,0,0,0,.233-.565,2.183,2.183,0,0,1,2.064-1.661c.16-.017.328.032.349.229s-.15.241-.307.27c-.387.071-.387.071-.3.445,0,.016.015.038.009.05-.2.392.086.69.209,1.015a.313.313,0,0,0,.241.141.9.9,0,0,1,.744.241,1.163,1.163,0,0,0,.661.288,7.935,7.935,0,0,0,2.694-.192,13.14,13.14,0,0,0,3.064-1,3.226,3.226,0,0,0,.357-.209,1.45,1.45,0,0,0,.064-2.486,2.685,2.685,0,0,0-1.411-.525c-1.228-.111-2.458-.2-3.685-.314a5.32,5.32,0,0,1-1.064-.2,1.4,1.4,0,0,1-1.053-1.854,6.494,6.494,0,0,1,1.3-2.533,11.022,11.022,0,0,1,2.826-2.627c.2-.127.363-.318.558-.458a2.642,2.642,0,0,1,2.444-.551.578.578,0,0,0,.622-.144c.179-.186.346-.383.523-.57.243-.255.483-.515.744-.752a.353.353,0,0,1,.316-.071.5.5,0,0,1,.157.317c.026.141,0,.292.009.437.032.342.207.441.531.3.165-.073.321-.167.486-.242.313-.143.553.011.505.353a4.8,4.8,0,0,1-.216.626.994.994,0,0,0-.015.329c.005.092.061.189.043.274-.057.274.081.427.258.617.379.407.71.86,1.061,1.293.035.042.082.111.119.108a5.016,5.016,0,0,0,.788-.1.668.668,0,0,1,.7.252c.128.2.084.413-.156.607a.42.42,0,0,0-.17.4,2.18,2.18,0,0,1-.061.589.691.691,0,0,1-.774.572,1.156,1.156,0,0,0-.966.23.682.682,0,0,1-.311.118C227.561,138.727,227.351,138.576,227.3,138.121Z" transform="translate(-213.409 -130.539)" fill="#d0fe55"/>
      <path id="Path_49" data-name="Path 49" d="M302.329,144.257l-.365-.324c-.361.05-.723.119-1.088.144a.4.4,0,0,0-.416.309c-.171.476-.4.93-.6,1.4a.627.627,0,0,0-.027.588c.05.1-.058.285-.115.424-.161.4-.336.785-.495,1.182a.936.936,0,0,0-.024.273c.457.2.5.387.2.787-.239.32-.462.652-.692.979l.056.088a3.507,3.507,0,0,1,.441,0c.11.013.262.037.309.112a.385.385,0,0,1-.033.326c-.168.291-.357.569-.547.846a.352.352,0,0,1-.619.039c-.053-.057-.1-.119-.152-.176-.117-.128-.224-.122-.351,0-.34.334-.466.32-.748-.064a.263.263,0,0,0-.36-.118,1.6,1.6,0,0,1-.637.021,2.285,2.285,0,0,0-1.144.282.736.736,0,0,1-.279,0c0-.087-.023-.194.017-.257a11.168,11.168,0,0,0,1.457-3.734c.042-.193.114-.382-.149-.522a.468.468,0,0,1-.139-.407c.095-.452.227-.9.361-1.339.153-.51.327-1.014.48-1.525a.638.638,0,0,0-.036-.26,1.582,1.582,0,0,1-.084-.508c.4-2.141.809-4.279,1.217-6.418.042-.22.127-.386.387-.415.06-.007.136-.115.158-.191.062-.214.08-.443.157-.651.037-.1.173-.224.261-.222s.214.13.259.231c.114.256.213.34.448.227a2.581,2.581,0,0,1,1.442-.187,3.292,3.292,0,0,0,1.5-.162,7.432,7.432,0,0,1,3.886-.182,2.753,2.753,0,0,1,2.483,2.611,1.161,1.161,0,0,0,.508,1.064,1.206,1.206,0,0,1,.057,1.646c-.276.349-.623.641-.928.969a3.93,3.93,0,0,0-.411.522,2.989,2.989,0,0,1-1.264.952c-.114.058-.233.1-.37.164.376.489-.14.66-.338.955.271.157.3.318.16.6a1.273,1.273,0,0,0,.011.682,14.041,14.041,0,0,0,1.178,4.026c.063.133.114.248.32.213.17-.03.261.142.2.324-.038.12-.086.238-.14.384a1.278,1.278,0,0,1,.334.031c.084.032.195.109.206.181s-.067.18-.134.243c-.191.178-.419.321-.59.516a.475.475,0,0,1-.566.18,1.987,1.987,0,0,0-1.438.028c-.295.116-.356.078-.514-.232-.188.064-.377.139-.573.194-.436.123-.559.033-.607-.418,0-.042-.011-.084-.018-.137l-.072.021-.361.118c-.037-.124-.125-.257-.1-.371a11.442,11.442,0,0,0-.121-3.781c-.083-.536-.194-1.067-.286-1.6-.028-.161-.074-.261-.269-.27C302.337,144.66,302.328,144.431,302.329,144.257Zm-1.76-6.075a2.614,2.614,0,0,0-.21.622,6.2,6.2,0,0,1-.338,1.452,4.108,4.108,0,0,0-.153.964c-.02.249.116.326.339.215a8.681,8.681,0,0,0,.936-.489,1.551,1.551,0,0,1,1.023-.25c.608.043,1.221.038,1.831.037a.8.8,0,0,0,.838-.661c.082-.334.139-.673.208-1.01.038-.187-.015-.276-.225-.305a1.73,1.73,0,0,1-.683-.206.329.329,0,0,0-.409-.013,1.011,1.011,0,0,1-.771.119.4.4,0,0,1-.349-.462c.014-.184.027-.369.041-.569-.464.1-.9.162-1.1.643a.351.351,0,0,1-.063.081c-.134.162-.31.294-.513.214C300.837,138.51,300.738,138.347,300.57,138.182Z" transform="translate(-266.296 -132.594)" fill="#d0fe55"/>
      <path id="Path_50" data-name="Path 50" d="M264.656,137.995c.426.17.442.277.192,1.045l.62.262a5.184,5.184,0,0,1,.5-.381.468.468,0,0,1,.368-.075c.092.045.136.214.175.337a3.857,3.857,0,0,1,.086.435,1.97,1.97,0,0,0,.5-.147,2.08,2.08,0,0,0,.868-1,2.464,2.464,0,0,1,.314-.531.515.515,0,0,1,.615-.21c.247.088.275.307.284.53a.421.421,0,0,0,.05.22,5.245,5.245,0,0,0,.32-.48,2.041,2.041,0,0,1,.738-.809c.21-.132.381-.326.589-.462a.411.411,0,0,1,.349-.052c.079.045.11.213.118.33a.656.656,0,0,1-.077.323,7.649,7.649,0,0,0-.6,2.812c-.017.171-.031.344-.037.516a.357.357,0,0,1-.24.357.5.5,0,0,0-.226.224c-.113.222-.195.459-.3.685s-.216.246-.423.108a.244.244,0,0,0-.107-.053c-.7-.026-1.391-.061-2.087-.067-.851-.008-1.7.017-2.555.008a.635.635,0,0,0-.635.5c-.26.829-.47,1.673-.7,2.512a.331.331,0,0,0-.007.079,1.089,1.089,0,0,1,.408.127c.086.076.1.24.156.417a2.46,2.46,0,0,0,.42-.126c.348-.17.689-.355,1.028-.542s.669-.1.664.384c0,.268.153.349.388.207.177-.106.326-.257.5-.364s.367-.175.544-.273a.992.992,0,0,0,.282-.21c.173-.2.309-.44.5-.626a.578.578,0,0,1,.418-.16c.2.027.205.233.179.4-.045.28-.108.557-.164.836-.023.116-.048.232-.072.349l.06.062c.132-.09.266-.175.393-.27.161-.119.3-.34.533-.194.211.133.124.357.073.544-.191.706-.392,1.41-.592,2.115a.361.361,0,0,1-.4.283c-1.068-.031-2.136-.055-3.2-.084a2.977,2.977,0,0,0-1.388.227c-.3.143-.445.06-.528-.261-.117-.457-.254-.506-.641-.221a6.97,6.97,0,0,1-.664.491.847.847,0,0,1-.454.05c-.2-.015-.387-.091-.581-.1-.364-.016-.513-.26-.646-.54-.05-.1-.11-.2-.19-.352a2.558,2.558,0,0,1-2.026.915,2.312,2.312,0,0,0,.086-.338c.018-.144-.012-.3.013-.438a1.507,1.507,0,0,1,.148-.446c.093-.172.235-.317.327-.49a.94.94,0,0,0,.048-.321c.011-.092-.013-.212.037-.274a4.343,4.343,0,0,0,.629-1.68c.365-1.3.671-2.621,1.022-3.927.192-.714.432-1.416.639-2.126a1.856,1.856,0,0,0,.014-.373,3.145,3.145,0,0,1,.068-.663,2.825,2.825,0,0,0,.158-1.209,1.515,1.515,0,0,1,.19-.8,1.783,1.783,0,0,0,.284-.944.53.53,0,0,1,.281-.565c.052-.027.071-.113.112-.165s.1-.112.133-.143a5.1,5.1,0,0,1,.425-.671,6.629,6.629,0,0,0,1.082-1.377c.034-.069.258-.132.292-.1a.48.48,0,0,1,.137.342,6.2,6.2,0,0,1-.166.7,1.309,1.309,0,0,0-.017.208,2.883,2.883,0,0,0,2.378.074c.546-.147,1.105-.245,1.658-.369a.309.309,0,0,0,.147-.081c.188-.2.36-.411.557-.6a.454.454,0,0,1,.766.034.181.181,0,0,0,.321-.017,6.691,6.691,0,0,0,.419-.764c.106-.225.166-.471.272-.7a.439.439,0,0,1,.5-.29.406.406,0,0,1,.336.408c.055.686.1,1.373.131,2.061.025.576.031,1.154.025,1.731a.392.392,0,0,1-.156.308c-.081.034-.222-.058-.328-.11-.056-.027-.095-.088-.2-.188a6.574,6.574,0,0,1-.158.67,1.549,1.549,0,0,1-.221.343c-.028.04-.076.066-.1.107-.181.314-.289.329-.507.125a5.707,5.707,0,0,1-.7.218c-.788.139-1.579.269-2.371.38a2.772,2.772,0,0,0-1.279.351.884.884,0,0,0-.259.236,3.021,3.021,0,0,0-.478,1.047A2.782,2.782,0,0,1,264.656,137.995Z" transform="translate(-242.655 -129.263)" fill="#d0fe55"/>
      <path id="Path_51" data-name="Path 51" d="M363.406,131.519c.269-.14.536-.283.807-.419.18-.091.364-.174.549-.255a.982.982,0,0,1,.221-.063c.132-.023.3-.093.388-.039s.067.239.1.4c.113-.034.27-.092.433-.127.436-.094.875-.175,1.312-.266a.347.347,0,0,0,.172-.083c.19-.2.361-.41.558-.6.281-.269.493-.246.773.028a.28.28,0,0,0,.258.037c.278-.146.33-.135.436.156a.254.254,0,0,0,.117.137,1.422,1.422,0,0,0,.036-.281.739.739,0,0,1,.511-.782,1.954,1.954,0,0,1,.514-.159.354.354,0,0,1,.3.122c.041.074-.031.211-.056.32,0,.014-.021.027-.035.037a.83.83,0,0,0-.266.858c.081.549.129,1.105.157,1.66a1.8,1.8,0,0,1-.142.508c-.033.121-.056.246-.08.351a1.007,1.007,0,0,0-.208.217c-.1.193-.209.239-.385.066-.148.174-.28.344-.428.5-.12.125-.247.09-.4-.051a5.278,5.278,0,0,1-.7.217c-1.027.168-2.061.3-3.087.482-.683.118-1,.651-1.234,1.232-.138.338-.253.685-.381,1.033.38.2.388.251.142,1.036l.615.267a5.149,5.149,0,0,1,.5-.386.462.462,0,0,1,.368-.071c.092.046.133.215.172.338a3.992,3.992,0,0,1,.089.433,2.015,2.015,0,0,0,.5-.15,2.074,2.074,0,0,0,.866-1,1.334,1.334,0,0,1,.5-.687c.03.223.042.42.087.609a1.048,1.048,0,0,0,.173.393c.236.3.369.291.625.02a2.068,2.068,0,0,1,.479-.382c.239-.134.4-.023.411.252a2.364,2.364,0,0,0,.048.484.559.559,0,0,0,.2.314.41.41,0,0,1,.193.476c-.035.247-.029.5-.065.747-.014.1-.077.252-.148.271-.251.071-.318.274-.405.468-.074.165-.129.338-.207.5-.1.21-.222.238-.409.112a.283.283,0,0,0-.128-.063c-.67-.025-1.339-.058-2.009-.065-.869-.009-1.738.015-2.607,0a.633.633,0,0,0-.646.483c-.269.861-.489,1.738-.728,2.608.153.038.322.033.412.115s.106.252.171.431a2.667,2.667,0,0,0,.427-.133c.348-.17.684-.366,1.03-.54.412-.207.615-.087.648.37.021.288.155.368.4.218.169-.1.311-.248.48-.35s.382-.183.567-.285a1,1,0,0,0,.278-.215c.167-.2.312-.413.474-.614.112-.139.25-.253.446-.174s.194.254.167.418c-.045.28-.11.557-.166.835-.023.116-.044.232-.083.434.171-.1.28-.154.378-.224s.16-.168.257-.213.266-.1.347-.058a.374.374,0,0,1,.126.323c-.085.43-.2.855-.312,1.279-.08.3-.178.594-.267.891-.128.432-.174.45-.618.438-1.18-.03-2.36-.059-3.54-.056a2.668,2.668,0,0,0-.846.2c-.364.127-.493.077-.58-.289-.1-.414-.238-.466-.6-.21-.231.165-.452.345-.68.515a.469.469,0,0,1-.484.056,1.887,1.887,0,0,0-.58-.108c-.355-.014-.5-.259-.63-.524-.053-.1-.107-.209-.189-.37a2.548,2.548,0,0,1-2.033.916,1.839,1.839,0,0,0,.075-.3c.018-.161,0-.328.022-.487a1.326,1.326,0,0,1,.141-.423,5.063,5.063,0,0,1,.317-.437.291.291,0,0,0,.055-.144,13.175,13.175,0,0,1,.649-2.027c.141-.708.378-1.4.558-2.1s.325-1.411.516-2.109c.184-.672.412-1.332.609-2a1.966,1.966,0,0,0,.017-.4,2.763,2.763,0,0,1,.066-.638,2.8,2.8,0,0,0,.158-1.26,1.482,1.482,0,0,1,.2-.779,1.7,1.7,0,0,0,.279-.919.681.681,0,0,1,.281-.6,1.248,1.248,0,0,0,.411-.656,1.18,1.18,0,0,1,1.031-.832c.239-.009.476-.043.714-.044.082,0,.209.047.233.107a.371.371,0,0,1-.045.275,2.481,2.481,0,0,1-.245.32Z" transform="translate(-307.069 -129.019)" fill="#d0fe55"/>
      <path id="Path_52" data-name="Path 52" d="M342,133.329a2.282,2.282,0,0,0,.033-.284,2.106,2.106,0,0,1,1.082-1.718.305.305,0,0,1,.281-.027.369.369,0,0,1,.127.278c-.014.353-.07.7-.078,1.057,0,.113.091.229.141.343a1.921,1.921,0,0,0,.263-.238c.061-.079.068-.2.134-.276s.2-.165.262-.143c.313.105.446-.093.579-.3.055-.086.07-.2.135-.276a1.055,1.055,0,0,1,.255-.165c.05.1.148.2.141.289a2.729,2.729,0,0,1-.143.466c-.126.455-.255.909-.365,1.367a.592.592,0,0,0,.175.591.41.41,0,0,1,.049.564,2.4,2.4,0,0,0-.147.243c-.067.144-.129.27.1.372a.4.4,0,0,1,.129.366,2.822,2.822,0,0,1-.374.818.757.757,0,0,0-.109.892.509.509,0,0,1-.036.648,3.4,3.4,0,0,0-.662,1.828c-.135,1.012-.413,2-.632,3a20.726,20.726,0,0,0-.505,2.872c-.054.72-.194,1.433-.305,2.148a.451.451,0,0,1-.5.413c-.181,0-.363,0-.543-.007-.606-.036-.638-.061-.843-.648-.177.131-.344.26-.515.381-.378.266-.645.2-.866-.229-.2.175-.382.35-.58.512a1.324,1.324,0,0,1-.258.132c-.035-.092-.112-.191-.1-.274.054-.3.146-.583.213-.877q.558-2.469,1.108-4.941c.026-.116.012-.241.029-.36a3.406,3.406,0,0,1,.1-.57c.091-.278.286-.526.086-.847-.06-.1-.018-.273.009-.406a.39.39,0,0,0-.252-.469c-.339-.184-.332-.333-.005-.549a.4.4,0,0,0,.133-.172c.089-.211.17-.426.246-.642a1.587,1.587,0,0,0,.087-.344,1.836,1.836,0,0,1,.2-.92.45.45,0,0,0-.03-.386c-.244-.417-.234-.6.239-.866a1.043,1.043,0,0,0,.568-.947,13.091,13.091,0,0,1,.119-1.417c.063-.486.247-.567.686-.341C341.9,133.294,341.93,133.3,342,133.329Z" transform="translate(-294.735 -130.372)" fill="#d0fe55"/>
    </g>
  </g>
</svg>
